<svg width="18" height="16" viewBox="0 0 18 16" fill="none" xmlns="http://www.w3.org/2000/svg">
<g clip-path="url(#clip0_250_2)">
<path fill-rule="evenodd" clip-rule="evenodd" d="M4.36963 13.9977V8.22665H6.80273C7.83398 8.4236 8.86523 9.02071 9.89648 9.71317H11.7861C12.6416 9.76788 13.0898 10.6932 12.2578 11.3013C11.5957 11.8202 10.7212 11.7905 9.82471 11.7046C9.20654 11.6717 9.18018 12.558 9.82471 12.5612C10.0488 12.5799 10.292 12.5236 10.5044 12.5236C11.6235 12.5221 12.5435 12.2939 13.1074 11.3513L13.3901 10.6463L16.2012 9.15983C17.6074 8.66589 18.6064 10.2353 17.5708 11.3279C15.5347 12.9082 13.4473 14.2087 11.3115 15.2591C9.76025 16.2657 8.20898 16.2313 6.65918 15.2591L4.36963 13.9977ZM11.1445 1.21923C11.6763 0.626808 12.0483 0.115671 12.8687 0.0156318C14.4067 -0.173505 15.8218 1.5084 15.0454 3.16374C14.8242 3.6358 14.3745 4.19539 13.8765 4.7456C13.3301 5.34897 12.7251 5.94138 12.3003 6.39L11.1445 7.61391L10.1895 6.63228C9.04102 5.45213 7.16748 3.96561 7.10596 2.12427C7.06201 0.834702 8.01709 0.00781628 9.11279 0.0234474C10.0942 0.0359523 10.5059 0.556468 11.1445 1.21923ZM0 7.67175H3.63721V14.5776H0V7.67175Z" fill="black"/>
</g>
<defs>
<clipPath id="clip0_250_2">
<rect width="18" height="16" fill="white"/>
</clipPath>
</defs>
</svg>
