<svg width="18" height="16" viewBox="0 0 18 16" fill="none" xmlns="http://www.w3.org/2000/svg">
<path d="M7.8125 6H8.25V7.5C8.25 7.78125 8.46875 8 8.75 8H9.25C9.5 8 9.75 7.78125 9.75 7.5V6H10.1562C12.8125 6 15 3.65625 15 0.75V0H13.0625C11.3438 0 9.84375 1 9 2.46875C8.125 1 6.625 0 4.90625 0H3V0.75C3 3.65625 5.15625 6 7.8125 6ZM13.0625 1.5H13.4062C13.125 3.21875 11.75 4.5 10.1562 4.5H9.8125C10.125 2.8125 11.4688 1.5 13.0625 1.5ZM4.90625 1.5C6.5 1.5 7.84375 2.8125 8.15625 4.5H7.8125C6.21875 4.5 4.875 3.21875 4.5625 1.5H4.90625ZM17.2188 9.75C16.25 8.9375 15.0625 9.25 14.4688 9.71875L12.5938 11.125H12.4688C12.4688 9.9375 11.5312 9 10.3125 9H5.8125C4.9375 9 4.0625 9.3125 3.375 9.84375L2.46875 10.5H0.5C0.21875 10.5 0 10.75 0 11V11.5C0 11.7812 0.21875 12 0.5 12H3L4.28125 11.0312C4.71875 10.6875 5.25 10.5 5.8125 10.5H10.3125C11.1875 10.5 11.2188 11.7812 10.2812 11.7812H8.40625C8.1875 11.7812 8 11.9688 8 12.1875V12.2188C8 12.4375 8.1875 12.625 8.40625 12.625H12.625C12.9375 12.625 13.2188 12.5312 13.4688 12.3438L15.375 10.9062C15.625 10.7188 16.0312 10.7188 16.25 10.9062C16.5938 11.1875 16.5625 11.625 16.25 11.875L13.0938 14.2188C12.8438 14.4062 12.5625 14.5 12.25 14.5H0.5C0.21875 14.5 0 14.75 0 15V15.5C0 15.7812 0.21875 16 0.5 16H12.25C12.875 16 13.5 15.8125 14 15.4375L17.125 13.0625C17.6562 12.6875 17.9688 12.0938 17.9688 11.4375C18 10.8125 17.7188 10.1875 17.2188 9.75Z" fill="#9DFF8A"/>
</svg>