<svg width="641" height="572" viewBox="0 0 641 572" fill="none" xmlns="http://www.w3.org/2000/svg">
<path d="M216.333 2.13331C155.933 6.26664 110.733 25.2 102.333 49.8666C100.6 54.9333 100.333 67.3333 100.333 134.533V213.333L103.4 220C111.8 237.867 138.067 252.133 176.867 260C230.6 270.8 300.2 265.733 337.933 248.267L347.667 243.867L358.333 252.933C371.8 264.4 393.4 275.467 410.333 279.467C424.867 282.933 448.333 283.2 462.333 280.267C510.2 270.133 547.4 232.533 557.133 184.8C560.067 169.733 559.133 142.933 555.133 128.933C549.267 108.533 540.333 93.0666 525.667 77.6C489.533 39.0666 432.6 28.8 385.133 52.1333C380.067 54.6666 375.8 56.5333 375.667 56.2666C375.533 56.1333 374.733 53.6 373.933 50.5333C366.733 25.3333 321.533 6.26664 259 1.99998C237.933 0.533311 238.467 0.533311 216.333 2.13331ZM284.333 25.3333C315.133 30.4 339.667 39.7333 348.733 50C351.533 52.9333 353.667 56.5333 353.667 58.1333C353.667 68.5333 334.467 80.9333 307.8 87.8666C241 105.333 147.667 94.2666 123.933 66.1333C121.933 63.7333 120.333 60.9333 120.333 59.8666C120.333 46 156.467 29.4666 196.333 24.8C203.267 24 210.867 23.0666 213 22.8C222.067 21.4666 272.2 23.3333 284.333 25.3333ZM446.067 79.3333C448.067 80.9333 449.933 84.1333 450.467 86.6666C451.133 90.6666 452.2 91.7333 458.733 94.6666C474.067 101.733 480.467 109.6 477.533 117.867C475.8 122.933 469.533 126.533 464.733 125.333C462.867 124.933 459.4 123.067 457.133 121.333C446.467 113.2 437.4 112.4 429.8 118.8C423.667 123.867 422.2 129.867 425.4 136.933C428.867 144.8 430.733 146 442.6 148.267C454.333 150.4 462.067 154.4 468.2 161.333C475 169.2 478.067 176.4 478.733 186.8C479.267 195.067 478.867 197.467 475.933 203.867C472.2 212 462.867 222 456.467 224.667C453 226 452.333 227.067 452.333 230.933C452.333 237.067 446.333 243.333 440.333 243.333C435.133 243.333 428.333 237.067 428.333 232.267C428.333 229.6 426.733 228.267 418.733 224.267C406.067 218 401 212.933 401 206C401 200 404.2 195.867 409.933 194.667C413 194 415 194.533 419.267 197.6C430.733 205.6 431.667 206 438.2 206C443.933 206 445.267 205.467 449.8 200.8C454.067 196.533 455 194.667 455 190.533C455 184.8 451.267 177.6 447.267 175.467C445.933 174.8 440.333 173.2 434.867 171.867C418.067 168.267 409.8 161.867 403.267 147.333C400.6 141.733 399.8 137.867 399.8 130C399.667 121.333 400.2 119.067 403.667 112.8C408.067 104.8 415.933 97.4666 422.6 95.0666C426.467 93.6 427 92.9333 427 88.5333C427 78.5333 438.2 73.2 446.067 79.3333ZM154.067 105.733C180.2 114 196.733 116 237.667 116C279.533 116 293.533 114.133 328.067 103.867L331 103.067L327.8 110C325.933 113.867 323.533 120.8 322.333 125.333L320.067 133.733L305.667 137.2C280.867 143.333 263.133 145.067 231 144.267C213.667 143.867 197.267 142.8 189.667 141.467C160.733 136.533 137.8 127.467 128.333 117.2C123.133 111.6 123 111.067 123 102V92.6666L132.067 97.2C137 99.6 146.867 103.6 154.067 105.733ZM156.867 156C202.333 169.067 258.6 170.133 311.8 158.667L315.933 157.733L316.867 168.267C317.4 174 317.933 179.867 318.067 181.333C318.333 183.467 316.867 184.267 309.933 186.133C247.533 203.333 152.867 193.067 128.467 166.667C123.133 160.933 123 160.533 123 151.467V142.133L134.067 147.333C140.067 150.133 150.333 154 156.867 156ZM131.933 195.867C158.867 209.2 194.333 215.867 238.333 215.867C266.867 215.867 286.2 213.733 310.333 208C317.667 206.267 323.667 204.933 323.8 205.067C323.8 205.2 326.333 210 329.4 215.733L335 226.133L328.6 228.8C311.133 236.4 287.133 241.2 256.733 243.6C211.4 247.067 158.067 238.133 135.133 223.333C123.4 215.733 121.667 212.8 121.667 201.2C121.667 195.733 121.933 191.333 122.2 191.333C122.6 191.333 127 193.333 131.933 195.867Z" fill="#9DFF8A"/>
<path d="M582.333 277.733C578.733 279.067 534.067 303.333 483.4 331.733C432.6 360.133 390.6 383.333 389.933 383.333C389.267 383.333 388.067 381.867 387.267 380.133C385 374.933 376.467 366.133 370.333 362.667C365.267 359.6 233.267 324.267 213.8 320.667C198.467 317.867 180.333 320.133 165.933 326.667C156.067 331.2 5.66668 424.133 2.73335 427.6C-0.866652 431.733 -0.333319 437.6 4.20001 442.133C6.33335 444.267 9.53335 446 11.4 446C13.2667 446 45.9334 426.267 93.1334 396.4C136.467 369.067 174.867 345.733 179 344.267C183 342.8 190.867 341.333 196.333 340.933C205.8 340.4 209.933 341.333 281.667 360C323.133 370.667 358.733 380.533 361 381.867C369.933 387.067 373.267 401.333 367.267 409.733C363.533 414.933 355.4 419.333 349.4 419.333C347.133 419.333 322.467 414.267 294.867 408C267.133 401.733 242.733 396.667 240.467 396.667C232.2 396.667 227.8 407.2 233.4 413.867C237 418.133 340.2 441.2 351.8 440.267C368.2 439.067 382.067 429.333 388.333 415.067L391.667 407.467L489.933 352.133C556.6 314.533 589.8 296.4 593.533 295.867C614.067 292.533 627.133 317.2 612.067 330.8C605.667 336.667 317.933 531.867 309.533 536.133C297.933 542 287.533 544.667 273.667 545.6C264.6 546.133 248.467 544.4 193.133 537.333C124.467 528.667 117.667 528.133 108.333 531.6C103 533.6 77.2667 550 74.0667 553.6C69.6667 558.133 69.9334 564.933 74.4667 568.533C80.2 573.067 84.0667 572 99.1334 562.533C121 548.533 111.533 548.933 189 558.8C249.133 566.533 258.867 567.467 273 566.8C291.133 566.133 306.867 562.267 321.667 554.933C330.467 550.533 619.933 353.867 627.933 346.933C630.333 344.8 634.2 339.2 636.6 334.4C640.2 327.067 640.867 324.133 640.867 316.8C640.733 306.533 638.733 301.2 631.267 291.733C620.333 278.133 598.467 271.733 582.333 277.733Z" fill="#9DFF8A"/>
</svg>
