<svg width="13" height="13" viewBox="0 0 13 13" fill="none" xmlns="http://www.w3.org/2000/svg">
<g clip-path="url(#clip0_95_25)">
<path fill-rule="evenodd" clip-rule="evenodd" d="M11.5 0.0999756C11.2791 0.0999756 11.1 0.279062 11.1 0.499976V1.09998H10.5C10.2791 1.09998 10.1 1.27906 10.1 1.49998C10.1 1.72089 10.2791 1.89998 10.5 1.89998H11.1V2.49998C11.1 2.72089 11.2791 2.89998 11.5 2.89998C11.7209 2.89998 11.9 2.72089 11.9 2.49998V1.89998H12.5C12.7209 1.89998 12.9 1.72089 12.9 1.49998C12.9 1.27906 12.7209 1.09998 12.5 1.09998H11.9V0.499976C11.9 0.279062 11.7209 0.0999756 11.5 0.0999756ZM9.8536 3.85353L8.8536 4.85353C8.6583 5.04879 8.3417 5.04879 8.1465 4.85353C7.9512 4.65827 7.9512 4.34169 8.1465 4.14642L9.1464 3.14643C9.3417 2.95116 9.6583 2.95116 9.8536 3.14642C10.0488 3.34168 10.0488 3.65826 9.8536 3.85353ZM7.85357 5.85353L0.853552 12.8535C0.658292 13.0488 0.341713 13.0488 0.146453 12.8535C-0.0488176 12.6583 -0.0488176 12.3417 0.146453 12.1464L7.14646 5.14642C7.34172 4.95116 7.65831 4.95116 7.85357 5.14642C8.0488 5.34168 8.0488 5.65827 7.85357 5.85353ZM11.9 5.49998V6.09998H12.5C12.7209 6.09998 12.9 6.27906 12.9 6.49998C12.9 6.72089 12.7209 6.89998 12.5 6.89998H11.9V7.49998C11.9 7.72089 11.7209 7.89998 11.5 7.89998C11.2791 7.89998 11.1 7.72089 11.1 7.49998V6.89998H10.5C10.2791 6.89998 10.1 6.72089 10.1 6.49998C10.1 6.27906 10.2791 6.09998 10.5 6.09998H11.1V5.49998C11.1 5.27906 11.2791 5.09998 11.5 5.09998C11.7209 5.09998 11.9 5.27906 11.9 5.49998ZM6.50002 0.0999756C6.2791 0.0999756 6.10002 0.279062 6.10002 0.499976V1.09998H5.50002C5.2791 1.09998 5.10002 1.27906 5.10002 1.49998C5.10002 1.72089 5.2791 1.89998 5.50002 1.89998H6.10002V2.49998C6.10002 2.72089 6.2791 2.89998 6.50002 2.89998C6.72093 2.89998 6.90002 2.72089 6.90002 2.49998V1.89998H7.50002C7.72093 1.89998 7.90002 1.72089 7.90002 1.49998C7.90002 1.27906 7.72093 1.09998 7.50002 1.09998H6.90002V0.499976C6.90002 0.279062 6.72093 0.0999756 6.50002 0.0999756Z" fill="white"/>
</g>
<defs>
<clipPath id="clip0_95_25">
<rect width="13" height="13" fill="white"/>
</clipPath>
</defs>
</svg>
