<svg width="19" height="16" viewBox="0 0 19 16" fill="none" xmlns="http://www.w3.org/2000/svg">
<path d="M18.8125 7.5L17 5.875V1.75C17 1.34375 16.6562 1 16.25 1H13.25C12.8125 1 12.5 1.34375 12.5 1.75V1.84375L10.8125 0.34375C10.5938 0.125 10.3125 0 10 0C9.65625 0 9.375 0.125 9.15625 0.34375L1.15625 7.5C1.0625 7.59375 0.96875 7.75 0.96875 7.875C0.96875 8.03125 1.03125 8.125 1.125 8.21875L1.4375 8.59375C1.53125 8.6875 1.65625 8.75 1.8125 8.75C1.9375 8.75 2.0625 8.71875 2.15625 8.625L2.96875 7.875V14.75C2.96875 15.4688 3.53125 16 4.21875 16H15.75C16.4375 16 17 15.4688 17 14.75V7.875L17.8125 8.625C17.9062 8.71875 18.0312 8.75 18.1562 8.75C18.3125 8.75 18.4375 8.6875 18.5312 8.59375L18.875 8.21875C18.9375 8.125 19 8.03125 19 7.875C19 7.75 18.9062 7.59375 18.8125 7.5ZM15.5 14.5H4.5V6.53125L10 1.59375L15.5 6.53125V14.5ZM15.5 4.53125L14 3.1875V2.5H15.5V4.53125ZM8 6.5V9.5C8 9.78125 8.21875 10 8.5 10H11.5C11.75 10 12 9.78125 12 9.5V6.5C12 6.25 11.75 6 11.5 6H8.5C8.21875 6 8 6.25 8 6.5Z" fill="#9DFF8A"/>
</svg>
