<svg width="16" height="20" viewBox="0 0 16 20" fill="none" xmlns="http://www.w3.org/2000/svg">
<path d="M7.99781 0.953125C7.25681 0.953125 6.50481 1.06712 5.74781 1.26512C5.21361 1.40612 4.92021 1.95013 5.06031 2.48413C5.20041 3.01813 5.7448 3.34313 6.2788 3.20312C6.8768 3.04612 7.43681 2.95312 7.99781 2.95312C8.57581 2.95312 9.15181 3.04612 9.74781 3.20312C10.2818 3.34313 10.8258 3.01813 10.9668 2.48413C11.1068 1.95013 10.7818 1.40612 10.2478 1.26512C9.49181 1.06712 8.75381 0.953125 7.99781 0.953125ZM7.99781 3.95312C3.5795 3.95312 -0.00219727 7.53512 -0.00219727 11.9531C-0.00219727 16.3711 3.5795 19.9531 7.99781 19.9531C12.4158 19.9531 15.9978 16.3711 15.9978 11.9531C15.9978 7.53512 12.4158 3.95312 7.99781 3.95312ZM14.9978 3.95312C14.4458 3.95312 13.9978 4.40113 13.9978 4.95312C13.9978 5.50512 14.4458 5.95312 14.9978 5.95312C15.5498 5.95312 15.9978 5.50512 15.9978 4.95312C15.9978 4.40113 15.5498 3.95312 14.9978 3.95312ZM7.99781 5.95312C11.3118 5.95312 13.9978 8.63913 13.9978 11.9531C13.9978 15.2671 11.3118 17.9531 7.99781 17.9531C4.68411 17.9531 1.9978 15.2671 1.9978 11.9531C1.9978 8.63913 4.68411 5.95312 7.99781 5.95312ZM7.99781 7.95312C7.44581 7.95312 6.99781 8.40113 6.99781 8.95312V11.9531C6.99781 12.2181 7.0918 12.4841 7.2788 12.6721L9.27881 14.6721C9.66981 15.0621 10.3258 15.0621 10.7168 14.6721C11.1068 14.2811 11.1068 13.6251 10.7168 13.2341L8.99781 11.5151V8.95312C8.99781 8.40113 8.54981 7.95312 7.99781 7.95312Z" fill="#2A343D"/>
</svg>
