<svg width="16" height="19" viewBox="0 0 16 19" fill="none" xmlns="http://www.w3.org/2000/svg">
<path d="M8 0C7.259 0 6.507 0.113996 5.75 0.311996C5.2158 0.452996 4.9224 0.997006 5.0625 1.53101C5.2026 2.06501 5.747 2.39 6.281 2.25C6.879 2.093 7.439 2 8 2C8.578 2 9.154 2.093 9.75 2.25C10.284 2.39 10.828 2.06501 10.969 1.53101C11.109 0.997006 10.784 0.452996 10.25 0.311996C9.494 0.113996 8.756 0 8 0ZM8 3C3.5817 3 0 6.582 0 11C0 15.418 3.5817 19 8 19C12.418 19 16 15.418 16 11C16 6.582 12.418 3 8 3ZM15 3C14.448 3 14 3.448 14 4C14 4.552 14.448 5 15 5C15.552 5 16 4.552 16 4C16 3.448 15.552 3 15 3ZM8 5C11.314 5 14 7.686 14 11C14 14.314 11.314 17 8 17C4.6863 17 2 14.314 2 11C2 7.686 4.6863 5 8 5ZM8 7C7.448 7 7 7.448 7 8V11C7 11.265 7.094 11.531 7.281 11.719L9.281 13.719C9.672 14.109 10.328 14.109 10.719 13.719C11.109 13.328 11.109 12.672 10.719 12.281L9 10.562V8C9 7.448 8.552 7 8 7Z" fill="#9DFF8A"/>
</svg>
