<svg width="131" height="122" viewBox="0 0 131 122" fill="none" xmlns="http://www.w3.org/2000/svg">
<path d="M44.1706 0.260448C31.8171 1.1448 22.5724 5.19573 20.8543 10.4733C20.4998 11.5574 20.4453 14.2105 20.4453 28.5884V45.4482L21.0725 46.8746C22.7905 50.6973 28.1628 53.7498 36.0986 55.4329C47.0886 57.7436 61.3238 56.6596 69.0414 52.9225L71.0321 51.981L73.2138 53.9209C75.9681 56.3743 80.3859 58.7421 83.8493 59.5979C86.8218 60.3396 91.6214 60.3967 94.4848 59.7691C104.275 57.601 111.883 49.5562 113.874 39.3433C114.474 36.1197 114.283 30.3856 113.465 27.3902C112.265 23.0255 110.438 19.7163 107.438 16.4071C100.048 8.1626 88.4034 5.96597 78.6951 10.9583C77.6589 11.5003 76.7862 11.8997 76.7589 11.8427C76.7317 11.8141 76.568 11.2721 76.4044 10.616C74.9318 5.22426 65.6871 1.1448 52.8972 0.23192C48.5885 -0.0818837 48.6976 -0.0818837 44.1706 0.260448ZM58.0786 5.22426C64.3781 6.30831 69.3959 8.30524 71.2503 10.5019C71.823 11.1295 72.2593 11.8997 72.2593 12.2421C72.2593 14.4672 68.3323 17.1203 62.8782 18.6037C49.2157 22.3408 30.1263 19.973 25.2722 13.9537C24.8631 13.4402 24.5359 12.8411 24.5359 12.6129C24.5359 9.64604 31.9262 6.10861 40.0801 5.11014C41.4981 4.93898 43.0526 4.73929 43.4889 4.68223C45.3433 4.39695 55.597 4.79634 58.0786 5.22426ZM91.1578 16.7779C91.5668 17.1203 91.9486 17.8049 92.0577 18.347C92.194 19.2028 92.4122 19.431 93.7485 20.0586C96.8846 21.5706 98.1936 23.2537 97.5936 25.0224C97.2391 26.1065 95.9574 26.8767 94.9756 26.62C94.5939 26.5344 93.8848 26.135 93.4212 25.7641C91.2396 24.024 89.3852 23.8528 87.8308 25.2221C86.5763 26.3062 86.2763 27.5899 86.9308 29.1019C87.6399 30.785 88.0217 31.0418 90.4487 31.5267C92.8485 31.9832 94.4302 32.839 95.6847 34.3224C97.0755 36.0056 97.7027 37.5461 97.839 39.7712C97.9481 41.5399 97.8663 42.0534 97.2664 43.4227C96.5028 45.1629 94.5939 47.3025 93.2849 47.8731C92.5758 48.1583 92.4395 48.3866 92.4395 49.2139C92.4395 50.5261 91.2123 51.8669 89.9851 51.8669C88.9216 51.8669 87.5308 50.5261 87.5308 49.4991C87.5308 48.9286 87.2035 48.6433 85.5673 47.7875C82.9766 46.4467 81.9403 45.3626 81.9403 43.8792C81.9403 42.5954 82.5948 41.7111 83.7675 41.4543C84.3947 41.3117 84.8037 41.4258 85.6764 42.082C88.0217 43.7936 88.2125 43.8792 89.5488 43.8792C90.7214 43.8792 90.9941 43.7651 91.9213 42.7666C92.794 41.8537 92.9849 41.4543 92.9849 40.57C92.9849 39.3433 92.2213 37.8028 91.4032 37.3464C91.1305 37.2037 89.9851 36.8614 88.867 36.5761C85.431 35.8059 83.7402 34.4365 82.4039 31.327C81.8585 30.1289 81.6949 29.3016 81.6949 27.6184C81.6676 25.7641 81.7767 25.2792 82.4857 23.9384C83.3857 22.2267 84.9946 20.6577 86.3582 20.1442C87.149 19.8304 87.2581 19.6878 87.2581 18.7464C87.2581 16.6068 89.5488 15.4657 91.1578 16.7779ZM31.4353 22.4264C36.7803 24.1951 40.1619 24.623 48.5339 24.623C57.0969 24.623 59.9603 24.2237 67.0233 22.027L67.6233 21.8559L66.9688 23.3393C66.587 24.1666 66.0961 25.65 65.8507 26.62L65.3871 28.4172L62.4419 29.1589C57.3696 30.4712 53.7426 30.8421 47.1704 30.6709C43.6252 30.5853 40.271 30.3571 38.7165 30.0718C32.7988 29.0163 28.1083 27.0764 26.1721 24.8798C25.1085 23.6816 25.0813 23.5675 25.0813 21.6276V19.6307L26.9357 20.6006C27.9447 21.1141 29.9627 21.97 31.4353 22.4264ZM32.008 33.1813C41.3072 35.977 52.8154 36.2053 63.6963 33.7519L64.5417 33.5522L64.7326 35.8059C64.8417 37.0326 64.9508 38.2878 64.9781 38.6016C65.0326 39.058 64.7326 39.2292 63.3146 39.6286C50.5519 43.3086 31.1899 41.112 26.1994 35.4635C25.1085 34.2369 25.0813 34.1513 25.0813 32.2114V30.2145L27.3447 31.327C28.5719 31.9261 30.6717 32.7534 32.008 33.1813ZM26.9084 41.7111C32.417 44.5639 39.671 45.9902 48.6703 45.9902C54.5062 45.9902 58.4604 45.5338 63.3964 44.3071C64.8962 43.9362 66.1234 43.651 66.1507 43.6795C66.1507 43.708 66.6688 44.735 67.2961 45.9617L68.4414 48.1869L67.1324 48.7574C63.56 50.3835 58.6513 51.4105 52.4336 51.924C43.1616 52.6657 32.2534 50.7544 27.5629 47.5878C25.1631 45.9617 24.8086 45.3341 24.8086 42.8522C24.8086 41.6826 24.8631 40.7412 24.9176 40.7412C24.9995 40.7412 25.8994 41.1691 26.9084 41.7111Z" fill="black"/>
<path d="M119.028 59.227C118.292 59.5123 109.156 64.7043 98.7935 70.7807C88.4034 76.8571 79.8132 81.8209 79.6769 81.8209C79.5405 81.8209 79.2951 81.5071 79.1314 81.1363C78.6678 80.0237 76.9225 78.1409 75.6681 77.3991C74.6318 76.743 47.634 69.1832 43.6525 68.4129C40.5164 67.8139 36.8076 68.2988 33.8624 69.6967C31.8444 70.6666 1.0832 90.5504 0.483249 91.2921C-0.253055 92.1765 -0.143973 93.4317 0.783225 94.4016C1.21955 94.858 1.87405 95.2289 2.25583 95.2289C2.63762 95.2289 9.3189 91.0068 18.9727 84.6166C27.8356 78.7685 35.6895 73.7761 36.5349 73.4623C37.353 73.1485 38.962 72.8347 40.0801 72.7491C42.0163 72.635 42.8616 72.8347 57.5332 76.8286C66.0143 79.1108 73.2956 81.2218 73.7592 81.5071C75.5863 82.6197 76.268 85.6722 75.0409 87.4694C74.2773 88.582 72.6138 89.5234 71.3866 89.5234C70.923 89.5234 65.878 88.4393 60.233 87.0985C54.5607 85.7577 49.5702 84.6737 49.1066 84.6737C47.4158 84.6737 46.5159 86.9274 47.6613 88.3537C48.3976 89.2666 69.505 94.2019 71.8775 94.0022C75.2318 93.7455 78.0679 91.663 79.3496 88.6105L80.0314 86.9844L100.13 75.1455C113.765 67.1007 120.555 63.2209 121.319 63.1068C125.519 62.3936 128.191 67.6712 125.11 70.581C123.801 71.8363 64.9508 113.601 63.2327 114.514C60.8602 115.769 58.7331 116.339 55.897 116.539C54.0426 116.653 50.7428 116.282 39.4256 114.77C25.3812 112.916 23.9904 112.802 22.0815 113.544C20.9907 113.972 15.7275 117.48 15.073 118.251C14.1731 119.221 14.2276 120.676 15.1548 121.446C16.3274 122.416 17.1183 122.188 20.1998 120.162C24.6722 117.167 22.736 117.252 38.5802 119.363C50.8792 121.018 52.8699 121.218 55.7606 121.075C59.4694 120.932 62.6873 120.105 65.7143 118.536C67.5142 117.595 126.719 75.5163 128.355 74.0329C128.846 73.5764 129.636 72.3783 130.127 71.3513C130.864 69.7823 131 69.1547 131 67.5856C130.973 65.389 130.564 64.2479 129.037 62.2224C126.8 59.3126 122.328 57.9433 119.028 59.227Z" fill="black"/>
</svg>
