<svg width="753" height="986" viewBox="0 0 753 986" fill="none" xmlns="http://www.w3.org/2000/svg">
<g opacity="0.11">
<mask id="path-1-inside-1_67_79" fill="white">
<path d="M752.993 985.209L614.311 9.83058C614.72 7.95023 584.049 -20.5057 567.008 29.0208L561.838 643.73L497.137 666.911L529.488 655.32L561.838 643.73L497.137 666.911L501.747 664.331V660.517L326.859 560.516L126.065 654.151C126.065 654.151 49.2316 855.923 0 985.209"/>
</mask>
<path d="M752.993 985.209L614.311 9.83058C614.72 7.95023 584.049 -20.5057 567.008 29.0208L561.838 643.73L497.137 666.911L529.488 655.32L561.838 643.73L497.137 666.911L501.747 664.331V660.517L326.859 560.516L126.065 654.151C126.065 654.151 49.2316 855.923 0 985.209" fill="#5BFF74"/>
<path d="M561.669 643.26L496.969 666.44L497.306 667.381L562.006 644.201L561.669 643.26ZM0 985.709C301.194 985.709 489.744 987.841 602.844 988.908C659.392 989.441 697.087 989.707 720.57 989.307C732.307 989.107 740.512 988.741 745.749 988.155C748.362 987.863 750.269 987.512 751.516 987.088C752.135 986.877 752.635 986.634 752.977 986.337C753.333 986.029 753.557 985.622 753.488 985.139L752.498 985.279C752.505 985.329 752.506 985.422 752.322 985.582C752.124 985.753 751.766 985.946 751.193 986.141C750.055 986.529 748.237 986.87 745.638 987.161C740.452 987.741 732.289 988.108 720.552 988.308C697.086 988.707 659.407 988.441 602.854 987.908C489.753 986.841 301.2 984.709 0 984.709V985.709ZM614.311 9.83058L613.333 9.61786L613.295 9.79345L613.32 9.97135L614.311 9.83058ZM567.008 29.0208L566.062 28.6954L566.009 28.8495L566.008 29.0124L567.008 29.0208ZM561.838 643.73L562.175 644.672L562.832 644.436L562.838 643.739L561.838 643.73ZM497.137 666.911L496.649 666.038L497.475 667.852L497.137 666.911ZM529.488 655.32L529.15 654.379L529.488 655.32ZM501.747 664.331L502.236 665.203L502.747 664.917V664.331H501.747ZM501.747 660.517H502.747V659.937L502.243 659.649L501.747 660.517ZM326.859 560.516L327.355 559.648L326.906 559.391L326.436 559.61L326.859 560.516ZM126.065 654.151L125.643 653.245L125.275 653.416L125.131 653.795L126.065 654.151ZM615.288 10.0433C615.371 9.65973 615.239 9.32478 615.177 9.18222C615.095 8.9928 614.98 8.80332 614.858 8.62498C614.609 8.26394 614.252 7.8423 613.813 7.38885C612.932 6.4768 611.651 5.36362 610.062 4.25182C606.891 2.03284 602.409 -0.240369 597.321 -0.844893C592.201 -1.45341 586.507 -0.36325 581.016 4.08703C575.554 8.5144 570.358 16.2124 566.062 28.6954L567.954 29.3462C572.179 17.066 577.207 9.74849 582.276 5.64079C587.316 1.55599 592.46 0.591434 597.085 1.14113C601.745 1.69482 605.918 3.79276 608.915 5.89041C610.411 6.93693 611.592 7.96844 612.376 8.77902C612.77 9.18689 613.046 9.52104 613.21 9.75924C613.294 9.88052 613.331 9.95151 613.342 9.97705C613.373 10.0494 613.276 9.88392 613.333 9.61786L615.288 10.0433ZM566.008 29.0124L560.838 643.722L562.838 643.739L568.008 29.0292L566.008 29.0124ZM497.475 667.852L529.825 656.262L529.15 654.379L496.8 665.969L497.475 667.852ZM529.825 656.262L562.175 644.672L561.5 642.789L529.15 654.379L529.825 656.262ZM497.626 667.783L502.236 665.203L501.259 663.458L496.649 666.038L497.626 667.783ZM502.747 664.331V660.517H500.747V664.331H502.747ZM502.243 659.649L327.355 559.648L326.363 561.384L501.251 661.385L502.243 659.649ZM326.436 559.61L125.643 653.245L126.488 655.057L327.282 561.422L326.436 559.61ZM126.065 654.151C125.131 653.795 125.131 653.796 125.13 653.798C125.129 653.799 125.128 653.801 125.127 653.805C125.125 653.81 125.121 653.82 125.117 653.832C125.107 653.857 125.093 653.893 125.075 653.942C125.038 654.039 124.982 654.185 124.909 654.378C124.762 654.763 124.543 655.338 124.256 656.093C123.681 657.602 122.832 659.833 121.733 662.718C119.536 668.487 116.342 676.874 112.356 687.342C104.384 708.278 93.2412 737.54 80.56 770.842C55.1976 837.446 23.6813 920.21 -0.934536 984.853L0.934536 985.565C25.5503 920.922 57.0667 838.157 82.429 771.554C95.1102 738.252 106.253 708.99 114.225 688.054C118.212 677.586 121.405 669.199 123.602 663.429C124.701 660.544 125.55 658.314 126.125 656.805C126.412 656.05 126.631 655.476 126.778 655.09C126.851 654.897 126.907 654.751 126.944 654.654C126.963 654.605 126.977 654.568 126.986 654.544C126.991 654.531 126.994 654.523 126.996 654.516C126.998 654.513 126.998 654.511 126.999 654.509C127 654.508 127 654.507 126.065 654.151ZM753.983 985.068L615.301 9.68981L613.32 9.97135L752.003 985.35L753.983 985.068Z" fill="#292929" mask="url(#path-1-inside-1_67_79)"/>
</g>
</svg>
