<svg xmlns="http://www.w3.org/2000/svg" xmlns:xlink="http://www.w3.org/1999/xlink" viewBox="0,0,256,256" width="64px" height="64px" fill-rule="nonzero"><g fill="none" fill-rule="nonzero" stroke="none" stroke-width="1" stroke-linecap="butt" stroke-linejoin="miter" stroke-miterlimit="10" stroke-dasharray="" stroke-dashoffset="0" font-family="none" font-weight="none" font-size="none" text-anchor="none" style="mix-blend-mode: normal"><g><path d="M119.411,26.052c0,0 3.408,12.659 13.222,13.246c0,0 -13.1,4.525 -13.321,14.202c0,0 -2.578,-13.572 -12.925,-14.059c0,0.001 12.05,-1.825 13.024,-13.389z" fill="#c7c8c3"></path><path d="M119.311,55c-0.713,0 -1.335,-0.506 -1.473,-1.218c-0.023,-0.124 -2.494,-12.417 -11.522,-12.843c-0.771,-0.036 -1.388,-0.65 -1.428,-1.421c-0.04,-0.77 0.511,-1.444 1.273,-1.561c0.441,-0.068 10.895,-1.816 11.754,-12.032c0.062,-0.726 0.635,-1.301 1.359,-1.367c0.732,-0.066 1.394,0.399 1.584,1.102c0.031,0.116 3.259,11.626 11.863,12.142c0.714,0.043 1.298,0.584 1.395,1.292c0.098,0.708 -0.318,1.388 -0.994,1.622c-0.121,0.042 -12.118,4.311 -12.312,12.819c-0.018,0.767 -0.611,1.396 -1.375,1.46c-0.04,0.003 -0.082,0.005 -0.124,0.005zM111.57,39.271c3.878,1.969 6.23,5.746 7.586,8.877c2.026,-4.021 5.942,-6.787 8.949,-8.428c-4.134,-1.842 -6.783,-5.651 -8.334,-8.723c-1.792,4.36 -5.27,6.869 -8.201,8.274z" fill="#3a312a"></path><path d="M97.712,43.033c0,0 2.411,8.954 9.352,9.369c0,0 -9.266,3.201 -9.422,10.045c0,0 -1.824,-9.6 -9.142,-9.944c0,0 8.524,-1.291 9.212,-9.47z" fill="#c7c8c3"></path><path d="M97.642,63.947c-0.714,0 -1.337,-0.507 -1.473,-1.22c-0.016,-0.082 -1.704,-8.442 -7.739,-8.727c-0.771,-0.036 -1.388,-0.65 -1.428,-1.421c-0.04,-0.77 0.511,-1.444 1.273,-1.561c0.296,-0.047 7.363,-1.242 7.942,-8.113c0.062,-0.726 0.636,-1.303 1.361,-1.368c0.721,-0.053 1.392,0.399 1.582,1.101v0c0.021,0.079 2.227,7.92 7.993,8.266c0.714,0.043 1.299,0.584 1.396,1.293c0.097,0.709 -0.32,1.389 -0.997,1.622c-0.08,0.028 -8.281,2.952 -8.411,8.661c-0.018,0.768 -0.611,1.397 -1.376,1.461c-0.04,0.004 -0.082,0.006 -0.123,0.006zM93.122,52.42c2.107,1.332 3.523,3.395 4.447,5.279c1.376,-2.232 3.516,-3.871 5.365,-4.972c-2.288,-1.27 -3.885,-3.351 -4.941,-5.225c-1.174,2.288 -3.016,3.877 -4.871,4.918z" fill="#3a312a"></path><path d="M97.712,16.375c0,0 2.411,8.954 9.352,9.37c0,0 -9.266,3.201 -9.422,10.045c0,0 -1.824,-9.6 -9.142,-9.944c0,0 8.524,-1.292 9.212,-9.471z" fill="#c7c8c3"></path><path d="M97.642,37.29c-0.714,0 -1.337,-0.507 -1.473,-1.22c-0.016,-0.082 -1.704,-8.442 -7.739,-8.727c-0.771,-0.036 -1.388,-0.65 -1.428,-1.421c-0.04,-0.77 0.511,-1.444 1.273,-1.561c0.296,-0.047 7.363,-1.242 7.942,-8.113c0.062,-0.726 0.636,-1.303 1.361,-1.368c0.721,-0.053 1.392,0.399 1.582,1.101v0c0.021,0.079 2.227,7.92 7.993,8.265c0.714,0.042 1.299,0.584 1.396,1.293c0.097,0.709 -0.32,1.388 -0.996,1.622c-0.081,0.028 -8.282,2.953 -8.412,8.662c-0.018,0.768 -0.611,1.397 -1.376,1.461c-0.04,0.004 -0.082,0.006 -0.123,0.006zM93.122,25.763c2.107,1.332 3.523,3.395 4.447,5.279c1.376,-2.232 3.516,-3.872 5.365,-4.973c-2.287,-1.268 -3.885,-3.35 -4.941,-5.224c-1.174,2.288 -3.016,3.877 -4.871,4.918z" fill="#3a312a"></path><path d="M83.5,239.625h-12l39,-106h12z" fill="#ffffff"></path><path d="M83.5,241.125h-12c-0.49,0 -0.949,-0.239 -1.231,-0.642c-0.28,-0.402 -0.347,-0.916 -0.178,-1.376l39,-106c0.218,-0.591 0.779,-0.982 1.408,-0.982h12c0.49,0 0.949,0.239 1.23,0.642c0.28,0.402 0.347,0.916 0.178,1.376l-39,106c-0.217,0.59 -0.778,0.982 -1.407,0.982zM73.65,238.125h8.803l37.897,-103h-8.803z" fill="#3a312a"></path><path d="M156.561,196.303l15.939,43.322h12l-39,-106h-12l17.017,46.252z" fill="#ffffff"></path><path d="M184.5,241.125h-12c-0.629,0 -1.19,-0.392 -1.408,-0.982l-15.939,-43.322c-0.285,-0.777 0.112,-1.64 0.891,-1.926c0.778,-0.283 1.64,0.112 1.926,0.891l15.578,42.34h8.803l-37.896,-103h-8.803l16.275,44.234c0.285,0.777 -0.112,1.64 -0.891,1.926c-0.776,0.286 -1.639,-0.111 -1.926,-0.891l-17.018,-46.252c-0.169,-0.46 -0.102,-0.974 0.178,-1.376c0.281,-0.402 0.74,-0.642 1.23,-0.642h12c0.629,0 1.19,0.392 1.408,0.982l39,106c0.169,0.46 0.102,0.974 -0.178,1.376c-0.281,0.403 -0.74,0.642 -1.23,0.642z" fill="#3a312a"></path><path d="M69.745,159.082h21.089v-37.914h-55.377c-10.47,0 -18.957,8.487 -18.957,18.957v0c0,10.47 8.487,18.957 18.957,18.957h17.327z" fill="#454141"></path><path d="M90.833,160.582h-21.088c-0.828,0 -1.5,-0.672 -1.5,-1.5c0,-0.828 0.672,-1.5 1.5,-1.5h19.588v-34.914h-53.876c-9.626,0 -17.457,7.831 -17.457,17.457c0,9.626 7.831,17.457 17.457,17.457h17.327c0.828,0 1.5,0.672 1.5,1.5c0,0.828 -0.672,1.5 -1.5,1.5h-17.327c-11.28,0 -20.457,-9.177 -20.457,-20.457c0,-11.28 9.177,-20.457 20.457,-20.457h55.376c0.828,0 1.5,0.672 1.5,1.5v37.914c0,0.828 -0.672,1.5 -1.5,1.5z" fill="#3a312a"></path><path d="M58.694,140.125c0,2.777 -2.251,5.028 -5.028,5.028c-2.777,0 -5.028,-2.251 -5.028,-5.028c0,-2.777 2.251,-5.028 5.028,-5.028c2.777,0 5.028,2.251 5.028,5.028z" fill="#ffffff"></path><path d="M53.667,146.652c-3.6,0 -6.528,-2.928 -6.528,-6.527c0,-3.599 2.929,-6.527 6.528,-6.527c3.6,0 6.527,2.928 6.527,6.527c0,3.599 -2.927,6.527 -6.527,6.527zM53.667,136.598c-1.945,0 -3.528,1.582 -3.528,3.527c0,1.945 1.583,3.527 3.528,3.527c1.945,0 3.527,-1.582 3.527,-3.527c0,-1.945 -1.582,-3.527 -3.527,-3.527z" fill="#3a312a"></path><path d="M90.833,121.168v37.914h74.334v-37.914v0z" fill="#454141"></path><path d="M165.167,160.582h-74.334c-0.828,0 -1.5,-0.672 -1.5,-1.5v-37.914c0,-0.828 0.672,-1.5 1.5,-1.5h74.334c0.828,0 1.5,0.672 1.5,1.5v37.914c0,0.828 -0.672,1.5 -1.5,1.5zM92.333,157.582h71.334v-34.914h-71.334z" fill="#3a312a"></path><circle cx="128" cy="140.125" r="5.028" fill="#ffffff"></circle><path d="M128,146.652c-3.6,0 -6.527,-2.928 -6.527,-6.527c0,-3.599 2.928,-6.527 6.527,-6.527c3.6,0 6.527,2.928 6.527,6.527c0,3.599 -2.927,6.527 -6.527,6.527zM128,136.598c-1.945,0 -3.527,1.582 -3.527,3.527c0,1.945 1.582,3.527 3.527,3.527c1.945,0 3.527,-1.582 3.527,-3.527c0,-1.945 -1.582,-3.527 -3.527,-3.527z" fill="#3a312a"></path><path d="M165.167,121.168v37.914h55.376c10.47,0 18.957,-8.487 18.957,-18.957v0c0,-10.47 -8.487,-18.957 -18.957,-18.957z" fill="#454141"></path><path d="M220.543,160.582h-55.376c-0.828,0 -1.5,-0.672 -1.5,-1.5v-37.914c0,-0.828 0.672,-1.5 1.5,-1.5h55.376c11.28,0 20.457,9.177 20.457,20.457c0,11.28 -9.177,20.457 -20.457,20.457zM166.667,157.582h53.876c9.626,0 17.457,-7.831 17.457,-17.457c0,-9.626 -7.831,-17.457 -17.457,-17.457h-53.876z" fill="#3a312a"></path><path d="M207.361,140.125c0,2.777 -2.251,5.028 -5.028,5.028c-2.777,0 -5.028,-2.251 -5.028,-5.028c0,-2.777 2.251,-5.028 5.028,-5.028c2.777,0 5.028,2.251 5.028,5.028z" fill="#ffffff"></path><path d="M202.333,146.652c-3.6,0 -6.527,-2.928 -6.527,-6.527c0,-3.599 2.928,-6.527 6.527,-6.527c3.6,0 6.528,2.928 6.528,6.527c0,3.599 -2.928,6.527 -6.528,6.527zM202.333,136.598c-1.945,0 -3.527,1.582 -3.527,3.527c0,1.945 1.582,3.527 3.527,3.527c1.945,0 3.528,-1.582 3.528,-3.527c0,-1.945 -1.583,-3.527 -3.528,-3.527z" fill="#3a312a"></path><path d="M47.514,89.125c-0.828,0 -1.5,-0.672 -1.5,-1.5v-71c0,-0.828 0.672,-1.5 1.5,-1.5c0.828,0 1.5,0.672 1.5,1.5v71c0,0.828 -0.672,1.5 -1.5,1.5z" fill="#3a312a"></path><path d="M45.512,85.125c-0.727,0 -1.365,-0.529 -1.48,-1.27l-5.092,-32.729l-9.987,-9.988c-0.586,-0.586 -0.586,-1.535 0,-2.121c0.586,-0.586 1.535,-0.586 2.121,0l10.334,10.334c0.226,0.225 0.373,0.516 0.422,0.83l5.166,33.214c0.127,0.818 -0.434,1.585 -1.252,1.713c-0.078,0.011 -0.155,0.017 -0.232,0.017z" fill="#3a312a"></path><path d="M49.516,85.125c-0.077,0 -0.154,-0.006 -0.232,-0.018c-0.818,-0.128 -1.379,-0.895 -1.252,-1.713l7,-45c0.049,-0.314 0.196,-0.605 0.422,-0.83l14,-14c0.586,-0.586 1.535,-0.586 2.121,0c0.586,0.586 0.586,1.535 0,2.121l-13.654,13.655l-6.925,44.516c-0.115,0.74 -0.754,1.269 -1.48,1.269z" fill="#3a312a"></path><path d="M45.124,89.063c-0.227,0 -0.457,-0.051 -0.673,-0.16c-0.74,-0.372 -1.038,-1.273 -0.666,-2.014l16.001,-31.814c0.143,-0.284 0.372,-0.516 0.655,-0.661l13.776,-7.063c0.738,-0.378 1.642,-0.086 2.02,0.65c0.378,0.737 0.087,1.642 -0.65,2.02l-13.341,6.839l-15.781,31.377c-0.264,0.525 -0.792,0.826 -1.341,0.826z" fill="#3a312a"></path><path d="M193.776,65.917v50.208h8.971v-50.208z" fill="#ffffff"></path><path d="M202.748,117.625h-8.972c-0.828,0 -1.5,-0.672 -1.5,-1.5v-50.208c0,-0.828 0.672,-1.5 1.5,-1.5h8.972c0.828,0 1.5,0.672 1.5,1.5v50.208c0,0.828 -0.672,1.5 -1.5,1.5zM195.276,114.625h5.972v-47.208h-5.972z" fill="#3a312a"></path><path d="M220.669,65.918h-44.811c-3.793,0 -6.363,-3.86 -4.9,-7.36l12.926,-30.921c0.826,-1.976 2.758,-3.263 4.9,-3.263h18.96c2.142,0 4.074,1.287 4.9,3.263l12.926,30.921c1.462,3.5 -1.108,7.36 -4.901,7.36z" fill="#c8c8c8"></path><path d="M220.669,67.418h-44.811c-2.284,0 -4.404,-1.135 -5.67,-3.036c-1.266,-1.901 -1.495,-4.295 -0.614,-6.401l12.926,-30.921c1.063,-2.542 3.529,-4.185 6.284,-4.185h18.96c2.756,0 5.223,1.643 6.283,4.185l12.926,30.921c0.881,2.106 0.651,4.5 -0.614,6.401c-1.266,1.901 -3.386,3.036 -5.67,3.036zM188.784,25.875c-1.542,0 -2.922,0.919 -3.517,2.341l-12.926,30.921c-0.5,1.197 -0.375,2.503 0.344,3.582c0.719,1.08 1.875,1.699 3.173,1.699h44.811c1.298,0 2.454,-0.619 3.173,-1.699c0.719,-1.079 0.844,-2.385 0.344,-3.582l-12.926,-30.921c-0.594,-1.422 -1.974,-2.341 -3.516,-2.341z" fill="#3a312a"></path><path d="M216.773,77.147c-0.828,0 -1.5,-0.672 -1.5,-1.5v-9.729c0,-0.828 0.672,-1.5 1.5,-1.5c0.828,0 1.5,0.672 1.5,1.5v9.729c0,0.829 -0.671,1.5 -1.5,1.5z" fill="#3a312a"></path><path d="M174.764,121.168v0c0,-5.547 4.496,-10.043 10.043,-10.043h26.915c5.546,0 10.043,4.496 10.043,10.043v0v0z" fill="#ffffff"></path><path d="M221.764,122.668h-47c-0.828,0 -1.5,-0.672 -1.5,-1.5c0,-6.365 5.178,-11.543 11.543,-11.543h26.914c6.365,0 11.543,5.178 11.543,11.543c0,0.828 -0.672,1.5 -1.5,1.5zM176.395,119.668h43.736c-0.711,-3.998 -4.212,-7.043 -8.411,-7.043h-26.914c-4.199,0 -7.7,3.045 -8.411,7.043z" fill="#3a312a"></path><path d="M44.093,121.168h15.342c7.379,-4.242 12.579,-23.481 12.579,-35.362c0,-15.691 -9.066,-19.343 -20.25,-19.343c-11.184,0 -20.25,3.652 -20.25,19.343c0,11.88 5.2,31.12 12.579,35.362z" fill="#ffffff"></path><path d="M59.435,122.668h-15.342c-0.263,0 -0.521,-0.068 -0.748,-0.199c-8.138,-4.679 -13.331,-24.84 -13.331,-36.663c0,-18.683 12.413,-20.843 21.75,-20.843c9.337,0 21.75,2.16 21.75,20.843c0,11.824 -5.193,31.984 -13.332,36.663c-0.227,0.131 -0.485,0.199 -0.747,0.199zM44.516,119.668h14.496c6.228,-4.077 11.502,-21.799 11.502,-33.862c0,-12.507 -5.607,-17.843 -18.75,-17.843c-13.143,0 -18.75,5.336 -18.75,17.843c0,12.063 5.273,29.784 11.502,33.862z" fill="#3a312a"></path><path d="M64.76,68.25h-25.388c-1.669,0 -3.022,-1.353 -3.022,-3.022v0c0,-1.669 1.353,-3.022 3.022,-3.022h25.388c1.669,0 3.022,1.353 3.022,3.022v0c0,1.669 -1.353,3.022 -3.022,3.022z" fill="#ffffff"></path><path d="M64.76,69.75h-25.388c-2.494,0 -4.523,-2.028 -4.523,-4.522c0,-2.494 2.028,-4.522 4.523,-4.522h25.388c2.494,0 4.522,2.028 4.522,4.522c0,2.494 -2.028,4.522 -4.522,4.522zM39.372,63.705c-0.84,0 -1.523,0.683 -1.523,1.522c0,0.84 0.683,1.522 1.523,1.522h25.388c0.84,0 1.522,-0.683 1.522,-1.522c0,-0.84 -0.683,-1.522 -1.522,-1.522z" fill="#3a312a"></path><path d="M104.277,75.125c-1.661,0 -3.008,1.347 -3.008,3.008v40.026c0,1.661 1.347,3.008 3.008,3.008h47.446c1.661,0 3.008,-1.347 3.008,-3.008v-40.026c0,-1.661 -1.347,-3.008 -3.008,-3.008z" fill="#ffffff"></path><path d="M151.723,122.668h-47.445c-2.486,0 -4.509,-2.022 -4.509,-4.509v-40.026c0,-2.485 2.022,-4.508 4.509,-4.508h47.445c2.486,0 4.509,2.022 4.509,4.508v40.026c-0.001,2.487 -2.023,4.509 -4.509,4.509zM104.277,76.625c-0.832,0 -1.509,0.677 -1.509,1.508v40.026c0,0.832 0.677,1.509 1.509,1.509h47.445c0.832,0 1.509,-0.677 1.509,-1.509v-40.026c0,-0.831 -0.677,-1.508 -1.509,-1.508z" fill="#3a312a"></path><path d="M108.861,81.055c-0.639,0 -1.158,0.518 -1.158,1.158v31.868c0,0.64 0.519,1.158 1.158,1.158h38.277c0.639,0 1.158,-0.518 1.158,-1.158v-31.868c0,-0.64 -0.518,-1.158 -1.158,-1.158z" fill="#ffffff"></path><path d="M147.139,116.738h-38.277c-1.466,0 -2.658,-1.192 -2.658,-2.658v-31.867c0,-1.466 1.192,-2.658 2.658,-2.658h38.277c1.466,0 2.658,1.192 2.658,2.658v31.867c0,1.466 -1.192,2.658 -2.658,2.658zM109.203,113.738h37.594v-31.183h-37.594zM147.139,82.555h0.01z" fill="#3a312a"></path><path d="M128.612,90.605c0,2.134 -1.73,3.864 -3.864,3.864c-2.134,0 -3.864,-1.73 -3.864,-3.864c0,-2.134 1.73,-3.864 3.864,-3.864c2.134,0 3.864,1.73 3.864,3.864z" fill="#c7c8c3"></path><path d="M124.747,95.97c-2.958,0 -5.364,-2.406 -5.364,-5.364c0,-2.958 2.406,-5.364 5.364,-5.364c2.958,0 5.364,2.406 5.364,5.364c0,2.958 -2.406,5.364 -5.364,5.364zM124.747,88.241c-1.304,0 -2.364,1.061 -2.364,2.364c0,1.304 1.061,2.364 2.364,2.364c1.304,0 2.364,-1.061 2.364,-2.364c0,-1.303 -1.06,-2.364 -2.364,-2.364z" fill="#3a312a"></path><path d="M141.418,108.783h-14.287c-0.361,0 -0.588,-0.391 -0.407,-0.703l3.848,-6.667h0.001l3.294,-5.706c0.181,-0.313 0.632,-0.313 0.813,0l3.306,5.726l3.837,6.647c0.183,0.312 -0.044,0.703 -0.405,0.703z" fill="#c7c8c3"></path><path d="M141.418,110.283h-14.286c-0.702,0 -1.355,-0.378 -1.706,-0.985c-0.351,-0.608 -0.351,-1.362 0,-1.97l7.144,-12.372c0.351,-0.606 1.003,-0.983 1.703,-0.984c0,0 0.001,0 0.002,0c0.699,0 1.353,0.376 1.704,0.98l7.145,12.377c0.351,0.604 0.353,1.358 0.002,1.967c-0.352,0.609 -1.006,0.987 -1.708,0.987zM140.524,108.828c0.001,0.001 0.002,0.003 0.003,0.005zM128.916,107.283h10.717l-5.358,-9.281z" fill="#3a312a"></path><rect x="114.112" y="98.625" width="8" height="8" fill="#c7c8c3"></rect><path d="M122.111,108.125h-8c-0.828,0 -1.5,-0.672 -1.5,-1.5v-8c0,-0.828 0.672,-1.5 1.5,-1.5h8c0.828,0 1.5,0.672 1.5,1.5v8c0,0.828 -0.672,1.5 -1.5,1.5zM115.611,105.125h5v-5h-5z" fill="#3a312a"></path><path d="M220.54,122.665h-15c9.63,0 17.46,7.83 17.46,17.46c0,9.63 -7.83,17.46 -17.46,17.46h15c9.63,0 17.46,-7.83 17.46,-17.46c0,-9.63 -7.83,-17.46 -17.46,-17.46z" fill="#fcfcfc"></path></g></g></svg>