<svg xmlns="http://www.w3.org/2000/svg"  viewBox="0 0 32 32" width="64px" height="64px"><path d="M31.733,10.321c-0.188-0.204-4.662-5.02-7.166-6.364C22.989,3.109,21.161,3,19.744,3h-5.793	c-0.21,0-0.225,0.004-0.353,0.013c-0.552,0.021-0.982,0.484-0.962,1.036c0.005,0.148,0.047,0.286,0.11,0.413	c0.106,0.395,0.274,0.759,0.496,1.079c-0.007,0.003-0.012,0.008-0.019,0.011c0.032,0.041,0.071,0.075,0.099,0.119	c0.265,0.411,0.666,0.718,1.134,0.921c0.387,0.188,0.811,0.303,1.264,0.303c0.703,0,1.342-0.263,1.861-0.689	c0.04-0.031,0.079-0.061,0.117-0.093c0.153-0.138,0.295-0.288,0.42-0.455c0.002-0.003,0.006-0.005,0.008-0.009	c0.004-0.005,0.008-0.009,0.012-0.014c0-0.001,0.001-0.001,0.001-0.002c0.477-0.667,1.403-0.828,2.074-0.357	c0.68,0.474,0.847,1.408,0.373,2.088c-1.11,1.595-3.007,2.573-5.021,2.488c-1.652-0.029-3.168-0.702-4.211-1.837	c-1.516,0.118-2.16,0.575-3.515,1.874L5.338,12.25c-0.29,0.272-0.659,0.407-1.028,0.407c-0.384,0-0.764-0.15-1.055-0.439	L3.177,12.12c-0.498-0.588-0.47-1.45,0.067-2.003C3.34,10.02,3.435,9.925,3.535,9.825l2.241-2.109	c0.153-0.147,0.291-0.26,0.437-0.394c0.645-0.555,1.249-1.023,1.77-1.357c0.276-0.162,0.554-0.314,0.852-0.433	c0.01-0.004,0.02-0.008,0.029-0.012C9.195,5.39,9.55,5.29,9.929,5.208c0.171-0.035,0.325-0.082,0.51-0.106	c0.547-0.073,0.932-0.576,0.858-1.124c-0.073-0.547-0.576-0.928-1.124-0.858C9.115,3.261,8.219,3.535,7.432,3.957	c-2.503,1.345-6.977,6.16-7.165,6.364c-0.337,0.363-0.356,0.918-0.048,1.305l4,5C4.556,17.046,5.166,17.124,5.6,16.8L8,15v13	c0,0.553,0.447,1,1,1h14c0.553,0,1-0.447,1-1V15l2.4,1.8c0.433,0.324,1.044,0.247,1.381-0.175l4-5	C32.09,11.239,32.07,10.684,31.733,10.321z"/></svg>