<svg width="15" height="18" viewBox="0 0 15 13" fill="none" xmlns="http://www.w3.org/2000/svg">
<path fill-rule="evenodd" clip-rule="evenodd" d="M0.627577 0.16641C0.482813 0.32802 0.458794 0.56455 0.568117 0.75196L3.92115 6.50002L0.568117 12.2481C0.458794 12.4355 0.482813 12.672 0.627577 12.8336C0.772341 12.9952 1.00481 13.045 1.20308 12.9569L14.7031 6.95693C14.8836 6.87668 15 6.69762 15 6.50002C15 6.30243 14.8836 6.12337 14.7031 6.04312L1.20308 0.0431196C1.00481 -0.0450024 0.772341 0.00479952 0.627577 0.16641ZM2.21234 1.586L13.2689 6.50002L2.21234 11.414L4.84552 6.90002H9C9.22092 6.90002 9.4 6.72094 9.4 6.50002C9.4 6.27911 9.22092 6.10002 9 6.10002H4.84553L2.21234 1.586Z" fill="#FFA007"/>
</svg>
