<?xml version="1.0" encoding="UTF-8"?>
<svg version="1.1" xmlns="http://www.w3.org/2000/svg" width="343" height="347">
<path d="M0 0 C8.65398407 5.17249623 13.98989571 12.57504603 16.53125 22.33203125 C18.41967236 33.08030183 16.8073176 42.77661322 11 52 C11.67804688 52.32871094 12.35609375 52.65742188 13.0546875 52.99609375 C22.33578765 57.7394815 29.62716747 63.73999611 36 72 C36.62003906 71.2265625 37.24007812 70.453125 37.87890625 69.65625 C44.87722037 61.30286028 52.1396607 56.52431223 62 52 C61.66226563 51.52691406 61.32453125 51.05382812 60.9765625 50.56640625 C55.42681709 42.3380265 53.8862766 33.91631591 55.46484375 24.11328125 C57.73674083 13.3990684 63.17893675 6.38766649 72 0 C78.98962754 -4.45944563 88.05204902 -3.71007075 96 -3 C104.58872179 -0.95332587 112.12801707 5.6607756 116.96875 12.921875 C121.47670606 22.00608949 122.0981951 32.0052943 119.77734375 41.74609375 C118.46760375 45.5436816 116.32228272 48.74703145 114 52 C114.99 52.4846875 115.98 52.969375 117 53.46875 C126.58408187 58.28748078 133.57587318 63.25389963 140 72 C140.42410156 71.49210937 140.84820312 70.98421875 141.28515625 70.4609375 C148.3530285 62.16589622 155.26394376 56.96486051 165 52 C164.65066406 51.33613281 164.30132812 50.67226563 163.94140625 49.98828125 C163.48636719 49.10527344 163.03132812 48.22226563 162.5625 47.3125 C162.11003906 46.44238281 161.65757812 45.57226562 161.19140625 44.67578125 C157.3827996 36.12202534 158.10782528 25.88135141 161.0859375 17.18359375 C164.35615817 9.37139994 170.70584181 3.18276677 178 -1 C185.96192241 -4.22780638 195.21684124 -4.43276851 203.4296875 -1.97265625 C212.0277186 1.97631223 218.28998641 7.9443823 222.5 16.4375 C225.95911899 26.30525461 225.48840918 38.82472709 221.0703125 48.25 C220 50 220 50 218 52 C218.82242187 52.40089844 219.64484375 52.80179687 220.4921875 53.21484375 C234.52309482 60.35991318 244.33433748 69.21896201 249.3495636 84.50274658 C250.39489154 88.51612709 250.42903888 92.39590509 250.3984375 96.5234375 C250.40130768 97.39142975 250.40417786 98.259422 250.40713501 99.15371704 C250.40916076 100.97048605 250.40373618 102.78727762 250.39111328 104.60400391 C250.37491955 107.38883551 250.39107229 110.17224175 250.41015625 112.95703125 C250.40817585 114.72916987 250.40433639 116.5013076 250.3984375 118.2734375 C250.40451019 119.10467133 250.41058289 119.93590515 250.4168396 120.79232788 C250.346888 126.49967823 250.346888 126.49967823 248.80868149 128.71825659 C246.339456 130.46810227 244.68866496 130.37599853 241.6729126 130.37752342 C240.56106976 130.38534666 239.44922691 130.39316991 238.30369186 130.40123022 C237.07715519 130.39453805 235.85061852 130.38784589 234.58691406 130.38095093 C232.63838972 130.38797089 232.63838972 130.38797089 230.65050125 130.39513266 C227.03729213 130.40769526 223.42431969 130.40144858 219.81110954 130.39217401 C215.91739139 130.38540527 212.02371485 130.3958539 208.13000488 130.40411377 C200.49925646 130.41747662 192.8685964 130.41456204 185.23784447 130.40587585 C179.0379908 130.39910972 172.83816196 130.39817793 166.63830566 130.4014473 C165.75701343 130.401907 164.87572119 130.40236669 163.96772313 130.40284032 C162.17757892 130.40379947 160.38743471 130.40477211 158.59729052 130.4057581 C141.79813437 130.41431947 124.99902727 130.40446616 108.19987917 130.388357 C93.77515529 130.37495314 79.35050382 130.37728102 64.92578125 130.39111328 C48.18808677 130.40715592 31.45043532 130.41349542 14.71273422 130.40427649 C12.92905427 130.40332081 11.1453743 130.4023777 9.36169434 130.4014473 C8.48401437 130.40098447 7.6063344 130.40052164 6.70205808 130.40004479 C0.50729419 130.39745095 -5.68744248 130.40183437 -11.88220215 130.40888596 C-19.42817927 130.41728656 -26.97406273 130.41505126 -34.52002907 130.39904372 C-38.37253094 130.39114151 -42.22487648 130.38810238 -46.07737732 130.39799118 C-50.24735993 130.40853329 -54.41694536 130.39597409 -58.58691406 130.38095093 C-60.42671907 130.39098918 -60.42671907 130.39098918 -62.30369186 130.40123022 C-63.41553471 130.39340697 -64.52737755 130.38558373 -65.6729126 130.37752342 C-66.63615574 130.37703637 -67.59939888 130.37654931 -68.59183121 130.37604749 C-71 130 -71 130 -72.80669785 128.71428931 C-74.92389651 125.6727369 -74.4678689 121.9954334 -74.46875 118.4140625 C-74.47636353 117.5612973 -74.48397705 116.7085321 -74.49182129 115.82992554 C-74.50263483 114.01929648 -74.5054703 112.20860499 -74.50097656 110.39794922 C-74.50001554 107.66913533 -74.54138008 104.94324311 -74.5859375 102.21484375 C-74.69475125 86.4499322 -71.53967711 75.09374926 -60.453125 63.36328125 C-55.14411092 58.35651302 -48.44976815 55.27822802 -42 52 C-42.61875 51.13375 -43.2375 50.2675 -43.875 49.375 C-49.49118786 40.45517222 -49.41742555 29.07815668 -47.3828125 18.91796875 C-44.33623563 10.35789658 -38.28282587 3.95280794 -30.5 -0.5625 C-21.10656332 -4.85391777 -9.15707671 -4.90557681 0 0 Z M-28.8125 14.8125 C-32.94197972 18.94197972 -34.38667786 23.09285732 -34.45898438 28.921875 C-34.45189453 29.60765625 -34.44480469 30.2934375 -34.4375 31 C-34.45748047 31.68578125 -34.47746094 32.3715625 -34.49804688 33.078125 C-34.49238353 39.01331319 -32.46001252 42.46781108 -28.40234375 46.64453125 C-22.72763519 51.16916554 -18.07556202 51.73485066 -11 51 C-5.43396432 49.40144996 -2.09901442 46.53751303 1.08984375 41.78125 C3.97225743 36.14013137 4.08304011 28.67614757 2.31640625 22.6796875 C0.11217481 17.86879231 -2.61048757 14.92634162 -7 12 C-15.39979491 8.95869495 -21.4804538 10.08740356 -28.8125 14.8125 Z M73 17 C69.03905362 22.51703246 68.32051811 28.30401485 69 35 C70.60680594 41.85739227 73.82198218 45.85668566 79.6875 49.8125 C85.34783577 51.84167697 90.65216423 51.84167697 96.3125 49.8125 C102.18901525 45.84926879 105.37418696 41.85889874 107 35 C107.82621089 28.23539836 106.63334444 22.35927531 102.75 16.75 C98.42422054 12.42422054 94.22255515 10.50890096 88.08203125 9.93359375 C82.21113839 10.12084549 77.1455793 12.97286582 73 17 Z M179.16796875 14.5859375 C173.95827495 20.39138704 172.58390671 25.55791202 172.75 33.28125 C173.3366733 39.66132212 176.0719947 43.87422812 181 48 C186.10896279 51.44557955 191.01550628 51.84542848 197 51 C202.87296752 48.9932138 207.25318966 44.49362069 210 39 C211.11941177 27.08569809 211.11941177 27.08569809 206.546875 16.48046875 C202.36284402 12.47605526 197.99123374 10.35471534 192.109375 9.91015625 C187.21961087 10.11842398 182.90501563 11.35088199 179.16796875 14.5859375 Z M-53.65234375 75.96875 C-62.82909643 88.71299332 -61 101.07761192 -61 117 C-31.3 117 -1.6 117 29 117 C30.42652079 92.88915409 30.42652079 92.88915409 19.91796875 73.75390625 C12.26783289 66.75816083 3.88725321 64.69582693 -6.26953125 64.6640625 C-7.41200569 64.6540773 -7.41200569 64.6540773 -8.57756042 64.64389038 C-10.17839164 64.6338343 -11.77926418 64.62907116 -13.38012695 64.62939453 C-15.79645722 64.62502898 -18.21094571 64.58865819 -20.62695312 64.55078125 C-32.95111481 64.46137168 -45.23561421 65.9403063 -53.65234375 75.96875 Z M51 75 C41.06217183 88.3906148 43 99.15354497 43 117 C72.7 117 102.4 117 133 117 C133.96680096 93.56646286 133.96680096 93.56646286 124 74 C113.96976139 65.34868308 103.29053084 64.48537202 90.54443359 64.55395508 C88.13682254 64.56245825 85.73159617 64.53364854 83.32421875 64.50195312 C71.27935086 64.44690367 59.84549225 65.922241 51 75 Z M155 75 C144.26327711 88.21973376 147 98.0901781 147 117 C176.7 117 206.4 117 237 117 C237.99187772 93.46845858 237.99187772 93.46845858 227.75 74.4375 C219.9487134 67.52272324 212.30485422 64.68591154 201.79296875 64.69921875 C201.0275325 64.69493362 200.26209625 64.6906485 199.47346497 64.68623352 C197.86244693 64.68052196 196.25140312 64.67996638 194.64038086 64.68432617 C192.20445648 64.68747806 189.76975839 64.66401633 187.33398438 64.63867188 C174.61852854 64.58528457 164.44259874 65.62961999 155 75 Z " fill="#000000" transform="translate(85,207)"/>
<path d="M0 0 C0.71309942 -0.00367669 1.42619884 -0.00735338 2.16090733 -0.01114148 C4.54494678 -0.02213405 6.92894259 -0.02601467 9.31300354 -0.02983093 C11.02499529 -0.03609914 12.73698569 -0.04274626 14.44897461 -0.04974365 C20.06843627 -0.07075153 25.68789808 -0.08114596 31.30738831 -0.09111023 C33.24645057 -0.09515961 35.18551269 -0.09927659 37.12457466 -0.10346031 C46.23993875 -0.12250821 55.35529478 -0.13673765 64.47067493 -0.14507228 C74.96792424 -0.15483043 85.46496189 -0.18111443 95.96213669 -0.22157317 C104.0906286 -0.25181902 112.21906014 -0.26654933 120.3476072 -0.26985329 C125.19497299 -0.27219495 130.04211259 -0.28103901 134.88941765 -0.30631447 C139.45725437 -0.32974755 144.02471841 -0.33376778 148.59259987 -0.32355309 C150.25895814 -0.32306123 151.92533572 -0.32927703 153.59163666 -0.34310913 C173.81996712 -0.50147803 190.71105731 5.16989445 205.81129456 19.14717102 C218.13046345 31.30050495 225.89092789 48.26919665 226.2424469 65.57221985 C226.28251225 84.98079944 221.69684911 102.65322877 207.81129456 117.14717102 C207.15129456 117.14717102 206.49129456 117.14717102 205.81129456 117.14717102 C205.81129456 117.80717102 205.81129456 118.46717102 205.81129456 119.14717102 C204.74262146 119.78489441 204.74262146 119.78489441 203.65235901 120.4355011 C199.97354869 122.63557709 196.50953107 124.72506388 195.26094055 129.05628967 C194.50926802 134.61873011 194.79158942 140.24120309 194.99879456 145.83467102 C195.06557042 148.3690199 195.11752856 150.90154348 195.14071655 153.43667603 C195.15768528 155.00653641 195.20074372 156.57639928 195.27374268 158.14465332 C195.34544989 162.20041248 195.00207007 163.90834398 192.43458557 167.12251282 C189.81129456 169.14717102 189.81129456 169.14717102 187.48316956 169.84248352 C183.17786592 168.72209749 180.36747096 165.90720262 177.06129456 163.02217102 C175.55374336 161.74321712 174.04592256 160.46458095 172.53785706 159.18623352 C171.76345276 158.5226886 170.98904846 157.85914368 170.19117737 157.17549133 C166.31162654 153.86903788 162.37326489 150.63482231 158.43629456 147.39717102 C157.71731995 146.80146301 156.99834534 146.205755 156.25758362 145.59199524 C155.58694885 145.0378595 154.91631409 144.48372375 154.22535706 143.91279602 C153.63706116 143.42585266 153.04876526 142.9389093 152.44264221 142.43721008 C146.14392228 137.45630075 138.35042514 138.43019457 130.61720276 138.28218079 C128.71658274 138.23413549 126.81643758 138.15925379 124.91798401 138.05659485 C114.55806876 137.16644667 114.55806876 137.16644667 105.01295471 140.34870911 C101.44817693 143.77463223 99.16827291 147.83993699 96.81129456 152.14717102 C95.82483779 153.57105976 94.82106379 154.98339546 93.78785706 156.37373352 C92.59320792 158.09080158 91.40798977 159.81366638 90.22926331 161.54170227 C88.06172751 164.64731914 86.09363658 167.19955729 82.81129456 169.14717102 C80.06129456 169.39717102 80.06129456 169.39717102 76.81129456 168.14717102 C73.78563428 165.44070128 71.33009842 162.32155397 68.81129456 159.14717102 C68.36527893 158.58642883 67.91926331 158.02568665 67.45973206 157.44795227 C64.70213658 153.97458748 61.96929963 150.48315955 59.26173401 146.97065735 C58.78308899 146.36890686 58.30444397 145.76715637 57.81129456 145.14717102 C57.1060968 144.1106842 56.40089905 143.07419739 55.67433167 142.00630188 C53.35767871 139.25755981 52.73620211 139.12967908 48.93336487 138.24385071 C47.42038717 138.15190741 45.90495543 138.09561862 44.38941956 138.06904602 C43.5760614 138.03884872 42.76270325 138.00865143 41.92469788 137.97753906 C39.30195661 137.90494745 36.68498082 137.89234961 34.06129456 137.89717102 C33.17413757 137.89258881 32.28698059 137.88800659 31.37294006 137.88328552 C20.84856467 137.9080406 11.63979672 138.00341391 3.56129456 145.58467102 C1.72764998 147.45637862 0.00355195 149.35955969 -1.66722107 151.37763977 C-3.92175828 153.99973312 -6.46035757 155.96098402 -9.18870544 158.08467102 C-11.70222907 160.11453177 -14.18771352 162.14629588 -16.61058044 164.28388977 C-22.25204102 169.10184855 -22.25204102 169.10184855 -27.06370544 169.33467102 C-30.60682082 167.98828718 -31.41751786 167.43233752 -33.18870544 164.14717102 C-33.39524703 161.33702629 -33.44046378 158.74406758 -33.34886169 155.94404602 C-33.33701606 154.307341 -33.32731884 152.67061929 -33.31956482 151.03388977 C-33.29285666 148.4674563 -33.25143077 145.90443566 -33.17185974 143.33906555 C-32.54460475 133.17549038 -32.54460475 133.17549038 -36.47727966 124.2624054 C-38.96396639 122.32144843 -41.4870968 120.75987066 -44.18870544 119.14717102 C-44.18870544 118.48717102 -44.18870544 117.82717102 -44.18870544 117.14717102 C-44.84870544 117.14717102 -45.50870544 117.14717102 -46.18870544 117.14717102 C-58.24833077 103.76098691 -64.80798665 87.3353736 -64.62620544 69.33467102 C-64.6193573 68.28585754 -64.61250916 67.23704407 -64.60545349 66.15644836 C-64.43514726 57.89627722 -63.35070216 50.84413671 -60.18870544 43.14717102 C-59.83808044 42.27576477 -59.48745544 41.40435852 -59.12620544 40.50654602 C-51.93824771 24.63313936 -38.65922143 11.33094082 -22.55198669 4.63545227 C-14.82316366 1.81689507 -8.24647545 0.02763813 0 0 Z M-36.18870544 31.14717102 C-36.76362732 31.7117804 -37.33854919 32.27638977 -37.93089294 32.85810852 C-47.10185448 42.59928528 -50.88942653 56.0893272 -51.56370544 69.20967102 C-50.03188895 85.29374425 -44.63076019 100.28657193 -32.18870544 111.14717102 C-31.13038513 111.69631165 -30.07206482 112.24545227 -28.98167419 112.81123352 C-22.16764196 116.48094958 -22.16764196 116.48094958 -20.18870544 120.14717102 C-18.36447172 128.96998365 -18.81045085 138.18984015 -19.18870544 147.14717102 C-15.95674379 145.2795268 -13.02368235 143.32167332 -10.15745544 140.93232727 C-9.42913513 140.32840149 -8.70081482 139.72447571 -7.95042419 139.10224915 C-7.20405701 138.47769836 -6.45768982 137.85314758 -5.68870544 137.20967102 C-3.49416729 135.38467944 -1.29900952 133.56044434 0.89723206 131.73750305 C2.48581512 130.41760125 4.07088633 129.09347405 5.65504456 127.76826477 C8.84356145 125.3711008 11.42463436 125.01926263 15.29518127 124.98603821 C16.65206558 124.97162689 16.65206558 124.97162689 18.03636169 124.95692444 C19.49889877 124.95054962 19.49889877 124.95054962 20.99098206 124.94404602 C21.99589691 124.93834595 23.00081177 124.93264587 24.03617859 124.92677307 C26.16286669 124.91732525 28.28956942 124.91078995 30.41627502 124.90693665 C33.66669788 124.89722954 36.91648882 124.86620317 40.16676331 124.83467102 C42.2331658 124.82814096 44.29957282 124.8228905 46.36598206 124.81904602 C47.82244644 124.80052582 47.82244644 124.80052582 49.30833435 124.78163147 C54.28545659 124.79802947 57.82740338 124.82277694 61.81129456 128.14717102 C63.6006012 129.96894836 63.6006012 129.96894836 65.22145081 131.98310852 C65.81893127 132.71787415 66.41641174 133.45263977 67.03199768 134.20967102 C67.63979065 134.97279602 68.24758362 135.73592102 68.87379456 136.52217102 C69.48545471 137.27756165 70.09711487 138.03295227 70.72731018 138.81123352 C73.23175145 141.90861818 75.71025502 145.01416128 78.11988831 148.18623352 C78.67805237 148.8333429 79.23621643 149.48045227 79.81129456 150.14717102 C80.47129456 150.14717102 81.13129456 150.14717102 81.81129456 150.14717102 C83.1633336 148.63366327 83.1633336 148.63366327 84.49098206 146.63935852 C85.26635315 145.52947571 85.26635315 145.52947571 86.05738831 144.39717102 C86.8636969 143.22154602 86.8636969 143.22154602 87.68629456 142.02217102 C88.21609924 141.26162415 88.74590393 140.50107727 89.29176331 139.71748352 C92.19240556 135.58067155 92.19240556 135.58067155 94.90992737 131.32392883 C97.16668803 127.59290241 98.63113835 126.32601789 102.81129456 125.14717102 C106.39169773 124.83560194 109.96106772 124.81921161 113.55348206 124.81123352 C114.59521576 124.80457672 115.63694946 124.79791992 116.71025085 124.7910614 C118.91074359 124.78095087 121.11126689 124.77624389 123.31178284 124.77656555 C126.667606 124.77219536 130.02211041 124.73586576 133.37770081 124.69795227 C135.51962341 124.69208311 137.66155224 124.68811438 139.80348206 124.68623352 C140.80160919 124.67186249 141.79973633 124.65749146 142.82810974 124.64268494 C150.51730272 124.69278782 155.18023091 126.57340819 161.02223206 131.69795227 C161.54075745 132.14614319 162.05928284 132.59433411 162.59352112 133.05610657 C163.11913635 133.51928284 163.64475159 133.98245911 164.18629456 134.45967102 C165.31275062 135.43235638 166.44036064 136.40370692 167.56910706 137.37373352 C168.11599182 137.8445636 168.66287659 138.31539368 169.22633362 138.80049133 C174.52755399 144.0981892 174.52755399 144.0981892 180.81129456 147.14717102 C180.81540344 146.38573792 180.81951233 145.62430481 180.82374573 144.83979797 C180.85670595 141.37897436 180.9273551 137.91990531 180.99879456 134.45967102 C181.00749573 132.66239563 181.00749573 132.66239563 181.01637268 130.82881165 C181.23949874 121.92856091 181.23949874 121.92856091 184.12379456 117.98701477 C185.45410706 117.07629211 185.45410706 117.07629211 186.81129456 116.14717102 C187.45711487 115.65732727 188.10293518 115.16748352 188.76832581 114.66279602 C189.38063049 114.24513977 189.99293518 113.82748352 190.62379456 113.39717102 C202.9577464 104.21625949 209.7004435 91.26074865 212.37770081 76.24482727 C214.22494361 63.04785838 211.04661124 49.3375849 203.81129456 38.14717102 C201.02648878 34.57105432 198.03722545 31.32750572 194.81129456 28.14717102 C194.24668518 27.57224915 193.68207581 26.99732727 193.10035706 26.40498352 C180.10293279 14.16838409 162.54414786 12.6841131 145.57301331 12.75898743 C143.99762104 12.75491064 142.42223164 12.74956262 140.84684753 12.74305725 C136.61126162 12.7295092 132.37589763 12.73462991 128.14030838 12.74419451 C123.68126635 12.75185665 119.22224173 12.74472748 114.76319885 12.74003601 C107.27887098 12.73459737 99.79463229 12.74172014 92.31031799 12.75605774 C83.69083477 12.77238059 75.07156452 12.76709074 66.45208645 12.75057852 C59.0155351 12.73690947 51.5790474 12.73507034 44.14248753 12.74289453 C39.71673664 12.7475414 35.29108544 12.74827906 30.86534119 12.73828506 C26.70203694 12.72953825 22.53900394 12.73577606 18.37572861 12.75296783 C16.85934776 12.75689191 15.34294358 12.75586986 13.82657242 12.74917984 C-6.07910377 12.66954059 -21.95564536 16.71005272 -36.18870544 31.14717102 Z " fill="#000000" transform="translate(92.18870544433594,12.852828979492188)"/>
<path d="M0 0 C3.78043004 0.79588001 4.90703075 0.5147091 8.4375 -0.6875 C14.6077425 -2.75667498 19.12170721 -2.71716658 25.13671875 -0.15234375 C32.33665818 3.71130088 36.96675846 8.96277539 39.5625 16.75 C40.61781858 30.36533967 37.74207567 36.73683831 29.1171875 46.9453125 C12.01206803 65.72432746 12.01206803 65.72432746 2.6640625 67.2109375 C-1.34341519 66.61536777 -3.72604455 64.77360839 -6.75 62.25 C-7.31686523 61.79222168 -7.88373047 61.33444336 -8.46777344 60.86279297 C-9.60840637 59.93509973 -10.74314767 59.00011075 -11.87158203 58.05761719 C-13.22184046 56.93008614 -14.5916114 55.82599736 -15.96484375 54.7265625 C-24.25006349 47.82463955 -33.40214384 38.09235248 -34.77734375 27.01171875 C-35.22145788 18.48689389 -33.25637184 12.15000452 -27.640625 5.6796875 C-19.45659602 -2.1442442 -10.55419966 -3.83789079 0 0 Z M-17.4375 14.75 C-20.26998567 18.05456662 -21.10708261 21.21271548 -20.90234375 25.5859375 C-18.55886006 36.49593722 -6.30028758 45.96992114 2.5625 51.75 C11.66020786 45.5719004 23.05971562 36.59205773 26.5 25.8125 C26.59526345 21.14459092 24.86986175 17.71104262 22.3125 13.875 C19.43978417 12.02825411 16.93586501 11.86632293 13.5625 11.75 C10.7957494 12.95968895 10.7957494 12.95968895 8.5625 14.75 C5.47361478 16.80925681 4.85314073 16.9890374 1.375 16.875 C-0.5121875 16.813125 -0.5121875 16.813125 -2.4375 16.75 C-2.4375 16.09 -2.4375 15.43 -2.4375 14.75 C-8.63611405 11.44407251 -11.30444455 11.04461234 -17.4375 14.75 Z " fill="#000000" transform="translate(170.4375,49.25)"/>
<path d="M0 0 C8.75701028 7.37520068 14.32172339 18.40487941 15.3359375 29.76171875 C15.47577939 43.81582909 12.47329812 54.1455845 3 65 C-0.70415293 67.46943529 -2.62144505 67.46913089 -7 67 C-9 65.4375 -9 65.4375 -10 63 C-10.10887894 57.22941603 -8.17394672 54.79861012 -4.5 50.7890625 C0.45789439 44.87574054 0.53487003 37.92243122 0.34375 30.46875 C-0.37731641 23.19253445 -2.75952466 18.10665538 -7.75 12.8125 C-10.42524474 9.97041204 -10.96125113 9.21488012 -11.6875 5.1875 C-11 2 -11 2 -9.4375 0 C-5.65676229 -1.55107188 -3.90702599 -1.302342 0 0 Z " fill="#000000" transform="translate(278,48)"/>
<path d="M0 0 C2.375 1.625 2.375 1.625 4 4 C4.5625 7 4.5625 7 4 10 C1.875 12.4375 1.875 12.4375 -1 14 C-4.56090901 14 -6.25697245 13.69349238 -8.875 11.25 C-10.24863504 8.50272993 -10.53062116 7.03212094 -10 4 C-7.16979976 -0.02759265 -4.82432618 -0.80405436 0 0 Z " fill="#000000" transform="translate(252,38)"/>
</svg>
