<svg width="898" height="688" viewBox="0 0 898 688" fill="none" xmlns="http://www.w3.org/2000/svg">
<path d="M412.61 482.343L460.917 505.555L459.391 553.443L408.285 535.465L412.61 482.343Z" stroke="white" stroke-width="3.02362"/>
<path d="M616.323 677.225L617.982 647.588L674.773 606.348L717.355 593.81" stroke="#FFAE19" stroke-width="3.37638"/>
<path d="M590.87 519.122L593.534 486.641" stroke="#FFAE19" stroke-width="3.37638"/>
<path d="M604.375 511.663L613.764 490.922" stroke="#FFAE19" stroke-width="3.37638"/>
<path d="M634.159 517.615L629.635 486" stroke="#FFAE19" stroke-width="3.37638"/>
<path d="M620.517 511.006L610.114 491.205" stroke="#FFAE19" stroke-width="3.37638"/>
<path d="M615.382 650.824L578.804 578.267L535.084 548.838L507.469 541.41" stroke="#FFAE19" stroke-width="3.37638"/>
<path d="M506.276 554.055L535.085 548.838L513.813 528.721" stroke="#FFAE19" stroke-width="3.37638"/>
<path d="M642.942 560.365L615.382 650.824L602.684 566.061L590.002 544.858L556.263 536.25" stroke="#FFAE19" stroke-width="3.37638"/>
<path d="M602.684 566.061L590.87 519.122L576.021 496.994" stroke="#FFAE19" stroke-width="3.37638"/>
<path d="M615.382 650.824L627.486 566.369L619.133 533.351L604.375 511.663" stroke="#FFAE19" stroke-width="3.37638"/>
<path d="M590.002 544.858L553.398 505.039" stroke="#FFAE19" stroke-width="3.37638"/>
<path d="M627.763 611.535L649.714 605.715" stroke="#FFAE19" stroke-width="3.37638"/>
<path d="M634.763 588.422L667.325 572.214" stroke="#FFAE19" stroke-width="3.37638"/>
<path d="M662.807 538.199L642.942 560.365L634.796 535.824L649.803 508.874" stroke="#FFAE19" stroke-width="3.37638"/>
<path d="M634.796 535.824L626.796 505.964" stroke="#FFAE19" stroke-width="3.37638"/>
<path d="M554.92 611.755L521.571 637.135" stroke="#FFAE19" stroke-width="3.37638"/>
<path d="M557.885 564.052L541.316 573.527" stroke="#FFAE19" stroke-width="3.37638"/>
<path d="M536.035 514.339L556.263 536.25L530.719 530.655" stroke="#FFAE19" stroke-width="3.37638"/>
<path d="M602.684 566.061L607.056 528.339" stroke="#FFAE19" stroke-width="3.37638"/>
<path d="M578.804 578.267L571.853 552.348" stroke="#FFAE19" stroke-width="3.37638"/>
<path d="M652.994 550.708H667.35" stroke="#FFAE19" stroke-width="3.37638"/>
<path d="M643.68 521.592L663.169 517.341" stroke="#FFAE19" stroke-width="3.37638"/>
<path d="M604.375 511.663L599.644 496.908" stroke="#FFAE19" stroke-width="3.37638" stroke-linecap="square"/>
<path d="M579.837 627.615L559.966 587.875" stroke="#FFAE19" stroke-width="3.37638"/>
<path d="M535.726 606.545L512.794 576.186" stroke="#FFAE19" stroke-width="3.37638"/>
<path d="M615.382 650.824L663.831 609.142L670.835 586.233" stroke="#FFAE19" stroke-width="3.37638"/>
<path d="M663.83 609.142L674.622 600.432" stroke="#FFAE19" stroke-width="3.37638"/>
<path d="M662.016 539.529L684.554 536.871" stroke="#FFAE19" stroke-width="3.37638"/>
<path d="M662.807 538.199L675.096 502.855" stroke="#FFAE19" stroke-width="3.37638"/>
<path d="M675.549 559.567L667.325 572.215L679.274 571.505" stroke="#FFAE19" stroke-width="3.37638"/>
<path d="M637.918 634.025L665.931 632.012" stroke="#FFAE19" stroke-width="3.37638"/>
<path d="M674.622 600.432L697.808 594.83" stroke="#FFAE19" stroke-width="3.37638"/>
<path d="M674.622 600.432L686.42 589.91" stroke="#FFAE19" stroke-width="3.37638"/>
<path d="M654.49 618.374L683.934 610.709" stroke="#FFAE19" stroke-width="3.37638"/>
<path d="M607.949 600.054L591.717 583.405" stroke="#FFAE19" stroke-width="3.37638"/>
<path d="M605.644 581.673L617.848 565.894" stroke="#FFAE19" stroke-width="3.37638"/>
<path d="M506.538 590.211L523.759 591.72" stroke="#FFAE19" stroke-width="3.37638"/>
<path d="M525.405 622.525L544.285 619.271" stroke="#FFAE19" stroke-width="3.37638"/>
<path d="M536.353 640.198L535.834 627.635" stroke="#FFAE19" stroke-width="3.37638"/>
<path d="M619.133 533.351L620.33 520.036" stroke="#FFAE19" stroke-width="3.37638"/>
<path d="M604.1 547.588L610.088 542.722" stroke="#FFAE19" stroke-width="3.37638"/>
<path d="M624.124 551.957L632.385 547.625" stroke="#FFAE19" stroke-width="3.37638"/>
<path d="M631.406 523.71L636.587 498.026" stroke="#FFAE19" stroke-width="3.37638"/>
<path d="M544.894 608.291L540.179 586.489" stroke="#FFAE19" stroke-width="3.37638"/>
<path d="M572.472 516.479L572.513 526.016" stroke="#FFAE19" stroke-width="3.37638"/>
<path d="M669.317 522.322L681.005 515.609" stroke="#FFAE19" stroke-width="3.37638"/>
<path d="M680.416 539.963L675.549 559.567L687.494 555.217" stroke="#FFAE19" stroke-width="3.37638"/>
<path d="M686.42 589.91L691.142 576.099" stroke="#FFAE19" stroke-width="3.37638"/>
<path d="M686.42 589.91L694.492 586.821" stroke="#FFAE19" stroke-width="3.37638"/>
<path d="M662.151 624.001L654.926 630.956" stroke="#FFAE19" stroke-width="3.37638"/>
<path d="M523.967 528.838L524.042 538.37" stroke="#FFAE19" stroke-width="3.37638"/>
<path d="M535.01 539.306L535.085 548.838" stroke="#FFAE19" stroke-width="3.37638"/>
<path d="M617.982 647.588L649.448 574.819L690.444 543.847L709.393 537.491" stroke="#FFAE19" stroke-width="3.37638"/>
<path d="M710.266 546.39L690.444 543.847L702.336 530.633" stroke="#FFAE19" stroke-width="3.37638"/>
<path d="M585.697 560.557L617.982 647.588L625.385 564.093L636.528 542.728L668.998 532.611" stroke="#FFAE19" stroke-width="3.37638"/>
<path d="M625.385 564.093L634.159 517.615L647.366 495.236" stroke="#FFAE19" stroke-width="3.37638"/>
<path d="M617.982 647.588L601.16 565.646L607.373 532.951L620.518 511.006" stroke="#FFAE19" stroke-width="3.37638"/>
<path d="M636.528 542.728L669.955 501.959" stroke="#FFAE19" stroke-width="3.37638"/>
<path d="M603.558 609.808L581.757 605.228" stroke="#FFAE19" stroke-width="3.37638"/>
<path d="M595.35 587.57L562.563 573.37" stroke="#FFAE19" stroke-width="3.37638"/>
<path d="M564.97 539.893L585.697 560.557L592.209 536.158L574.249 508.148" stroke="#FFAE19" stroke-width="3.37638"/>
<path d="M592.209 536.158L602.765 500.795" stroke="#FFAE19" stroke-width="3.37638"/>
<path d="M674.798 606.326L698.095 608.196" stroke="#FFAE19" stroke-width="3.37638"/>
<path d="M669.056 559.87L685.812 568.294" stroke="#FFAE19" stroke-width="3.37638"/>
<path d="M687.476 510.174L668.999 532.612L693.637 525.853" stroke="#FFAE19" stroke-width="3.37638"/>
<path d="M625.385 564.094L618.882 527.441" stroke="#FFAE19" stroke-width="3.37638"/>
<path d="M649.448 574.819L654.711 549.133" stroke="#FFAE19" stroke-width="3.37638"/>
<path d="M575.301 551.625L561.269 552.35" stroke="#FFAE19" stroke-width="3.37638"/>
<path d="M580.52 517.693L569.208 512.142" stroke="#FFAE19" stroke-width="3.37638"/>
<path d="M620.517 511.006L624.27 496.344" stroke="#FFAE19" stroke-width="3.37638" stroke-linecap="square"/>
<path d="M651.354 623.108L668.43 583.26" stroke="#FFAE19" stroke-width="3.37638"/>
<path d="M693.227 600.287L713.848 569.454" stroke="#FFAE19" stroke-width="3.37638"/>
<path d="M617.982 647.588L568.161 609.289L559.96 587.25" stroke="#FFAE19" stroke-width="3.37638"/>
<path d="M568.161 609.289L557.098 601.321" stroke="#FFAE19" stroke-width="3.37638"/>
<path d="M564.97 539.893L550.868 505.965" stroke="#FFAE19" stroke-width="3.37638" stroke-linecap="square"/>
<path d="M553.777 561.423L562.563 573.37L550.842 573.279" stroke="#FFAE19" stroke-width="3.37638"/>
<path d="M639.066 632.293L679.571 629.719" stroke="#FFAE19" stroke-width="3.37638"/>
<path d="M557.098 601.321L534.103 597.015" stroke="#FFAE19" stroke-width="3.37638"/>
<path d="M557.097 601.321L544.943 591.631" stroke="#FFAE19" stroke-width="3.37638"/>
<path d="M577.837 617.842L554.201 612.716" stroke="#FFAE19" stroke-width="3.37638"/>
<path d="M622.247 597.586L637.13 580.493" stroke="#FFAE19" stroke-width="3.37638"/>
<path d="M623.414 579.503L610.552 564.695" stroke="#FFAE19" stroke-width="3.37638"/>
<path d="M720.792 582.848L704.048 585.191" stroke="#FFAE19" stroke-width="3.37638"/>
<path d="M607.373 532.951L605.416 519.995" stroke="#FFAE19" stroke-width="3.37638"/>
<path d="M618.558 546.219L612.417 541.765" stroke="#FFAE19" stroke-width="3.37638"/>
<path d="M603.594 551.389L595.263 547.571" stroke="#FFAE19" stroke-width="3.37638"/>
<path d="M594.807 524.146L588.225 499.302" stroke="#FFAE19" stroke-width="3.37638"/>
<path d="M684.368 602.456L687.688 580.907" stroke="#FFAE19" stroke-width="3.37638"/>
<path d="M653.903 510.112L654.425 519.436" stroke="#FFAE19" stroke-width="3.37638"/>
<path d="M656.367 526.582L656.89 535.906" stroke="#FFAE19" stroke-width="3.37638"/>
<path d="M557.668 524.702L545.846 518.73" stroke="#FFAE19" stroke-width="3.37638"/>
<path d="M547.861 542.506L553.778 561.423L541.844 557.773" stroke="#FFAE19" stroke-width="3.37638"/>
<path d="M544.943 591.631L539.512 578.369" stroke="#FFAE19" stroke-width="3.37638"/>
<path d="M544.943 591.631L536.871 589.019" stroke="#FFAE19" stroke-width="3.37638"/>
<path d="M665.03 631.832L672.503 638.266" stroke="#FFAE19" stroke-width="3.37638"/>
<path d="M617.982 647.588L616.323 677.225" stroke="#FFAE19" stroke-width="3.37638"/>
<path d="M718.806 574.916L668.381 578.31" stroke="#FFAE19" stroke-width="3.37638"/>
<path d="M612.731 626.341L687.74 599.444" stroke="#FFAE19" stroke-width="3.37638"/>
<path d="M708.975 553.098L611.14 612.84L646.864 548.346" stroke="#FFAE19" stroke-width="3.37638"/>
<path d="M611.14 612.84L622.068 517.186" stroke="#FFAE19" stroke-width="3.37638"/>
<path d="M611.14 612.84L575.696 540.723" stroke="#FFAE19" stroke-width="3.37638"/>
<path d="M614.122 640.015L527.911 608.369" stroke="#FFAE19" stroke-width="3.37638"/>
<path d="M548.764 616.106L537.936 585.945" stroke="#FFAE19" stroke-width="3.37638"/>
<path d="M687.426 565.581L696.926 550.185" stroke="#FFAE19" stroke-width="3.37638"/>
<path d="M615.165 569.671L583.974 522.797" stroke="#FFAE19" stroke-width="3.37638"/>
<path d="M557.893 566.101L542.859 595.697" stroke="#FFAE19" stroke-width="3.37638"/>
<path d="M582.131 628.428L548.943 629.257" stroke="#FFAE19" stroke-width="3.37638"/>
<path d="M543.832 604.932L521.087 587.196" stroke="#FFAE19" stroke-width="3.37638"/>
<path d="M589.612 601.836L566.023 611.854" stroke="#FFAE19" stroke-width="3.37638"/>
<path d="M594.575 579.142L547.726 547.354" stroke="#FFAE19" stroke-width="3.37638"/>
<path d="M702.42 617.708L652.318 612.055" stroke="#FFAE19" stroke-width="3.37638"/>
<path d="M679.793 588.262L663.63 606.649" stroke="#FFAE19" stroke-width="3.37638"/>
<path d="M657.847 559.993L632.069 573.405" stroke="#FFAE19" stroke-width="3.37638"/>
<path d="M704.905 598.378L687.74 599.444L700.12 583.576" stroke="#FFAE19" stroke-width="3.37638"/>
<path d="M662.051 545.054L651.738 563.098" stroke="#FFAE19" stroke-width="3.37638"/>
<path d="M638.739 526.286L620.9 539.312" stroke="#FFAE19" stroke-width="3.37638"/>
<path d="M593.995 519.238L593.331 534.929" stroke="#FFAE19" stroke-width="3.37638"/>
<path d="M605.169 555.445L574.992 528.032" stroke="#FFAE19" stroke-width="3.37638"/>
<path d="M599.901 558.594L595.535 580.006" stroke="#FFAE19" stroke-width="3.37638"/>
<path d="M580.89 552.23L554.319 541.205" stroke="#FFAE19" stroke-width="3.37638"/>
<path d="M571.608 537.823L570.67 545.495" stroke="#FFAE19" stroke-width="3.37638"/>
<path d="M560.868 555.561L534.377 557.362" stroke="#FFAE19" stroke-width="3.37638"/>
<path d="M567.488 552.385L573.87 564.535" stroke="#FFAE19" stroke-width="3.37638"/>
<path d="M549.799 565.025L552.066 577.395" stroke="#FFAE19" stroke-width="3.37638"/>
<path d="M537.936 585.945L539.34 564.541" stroke="#FFAE19" stroke-width="3.37638"/>
<path d="M538.962 575.774L524.315 570.209" stroke="#FFAE19" stroke-width="3.37638"/>
<path d="M526.877 591.694L525.751 578.205" stroke="#FFAE19" stroke-width="3.37638"/>
<path d="M578.82 605.177L552.803 600.311" stroke="#FFAE19" stroke-width="3.37638"/>
<path d="M578.786 591.753L579.577 577.681" stroke="#FFAE19" stroke-width="3.37638"/>
<path d="M569.803 587.72L565.228 575.348" stroke="#FFAE19" stroke-width="3.37638"/>
<path d="M569.803 587.72L557.123 591.857" stroke="#FFAE19" stroke-width="3.37638"/>
<path d="M589.511 615.476L600.076 633.839" stroke="#FFAE19" stroke-width="3.37638"/>
<path d="M536.305 612.243L526.539 613.978" stroke="#FFAE19" stroke-width="3.37638"/>
<path d="M536.217 599.323L521.326 600.449" stroke="#FFAE19" stroke-width="3.37638"/>
<path d="M624.838 571.713L624.083 587.792" stroke="#FFAE19" stroke-width="3.37638"/>
<path d="M630.555 558.119L614.97 576.739" stroke="#FFAE19" stroke-width="3.37638"/>
<path d="M670.848 553.325L655.499 585.459" stroke="#FFAE19" stroke-width="3.37638"/>
<path d="M655.175 596.698L634.146 617.023" stroke="#FFAE19" stroke-width="3.37638"/>
<path d="M555.728 628.594L545.233 621.229" stroke="#FFAE19" stroke-width="3.37638"/>
<path d="M679.782 615.346L685.699 621.538" stroke="#FFAE19" stroke-width="3.37638"/>
<path d="M700.892 611.961L695.197 617.541" stroke="#FFAE19" stroke-width="3.37638"/>
<path d="M663.458 593.172L669.279 598.786" stroke="#FFAE19" stroke-width="3.37638"/>
<path d="M704.146 569.545L693.963 576.87" stroke="#FFAE19" stroke-width="3.37638"/>
<path d="M656.001 591.966L643.1 590.364" stroke="#FFAE19" stroke-width="3.37638"/>
<path d="M614.418 514.789L619.469 532.392" stroke="#FFAE19" stroke-width="3.37638"/>
<path d="M639.995 578.2L629.467 580.301" stroke="#FFAE19" stroke-width="3.37638"/>
<path d="M539.093 523.865L539.615 533.189" stroke="#FFAE19" stroke-width="3.37638"/>
<path d="M562.612 505.597L563.134 514.921" stroke="#FFAE19" stroke-width="3.37638"/>
<path d="M618.901 680.963L615.382 650.824L554.92 611.754L510.719 601.21" stroke="#FFAE19" stroke-width="3.37638"/>
<path d="M615.382 650.824L618.901 680.963" stroke="#FFAE19" stroke-width="3.37638"/>
<path d="M617.683 679.654L611.141 612.84L569.803 587.72" stroke="#FFAE19" stroke-width="3.37638"/>
<path d="M695.088 561.513L706.933 561.736" stroke="#FFAE19" stroke-width="3.37638"/>
<path d="M615.965 593.166L569.895 596.031" stroke="#F2D919" stroke-width="2.74237"/>
<path d="M609.374 572.768L519.989 623.188L552.627 568.757" stroke="#F2D919" stroke-width="2.74237"/>
<path d="M598.984 629.281L553.209 624.511" stroke="#F2D919" stroke-width="2.74237"/>
<path d="M601.254 612.968L585.572 613.868L596.883 600.475" stroke="#F2D919" stroke-width="2.74237"/>
<path d="M597.588 622.756L592.385 627.465" stroke="#F2D919" stroke-width="2.74237"/>
<path d="M608.602 586.959L599.299 593.141" stroke="#F2D919" stroke-width="2.74237"/>
<path d="M519.242 636.567L587.772 613.868" stroke="#F2D919" stroke-width="2.74237"/>
<path d="M523.766 681.562L517.788 625.173L480.021 603.973" stroke="#F2D919" stroke-width="2.74237"/>
<path d="M517.789 625.173L527.772 544.445" stroke="#F2D919" stroke-width="2.74237"/>
<path d="M517.788 625.173L485.406 564.309" stroke="#F2D919" stroke-width="2.74237"/>
<path d="M520.513 648.108L441.747 621.4" stroke="#F2D919" stroke-width="2.74237"/>
<path d="M460.799 627.93L450.907 602.475" stroke="#F2D919" stroke-width="2.74237"/>
<path d="M585.474 585.289L591.538 562.582" stroke="#F2D919" stroke-width="2.74237"/>
<path d="M521.466 588.74L492.969 549.18" stroke="#F2D919" stroke-width="2.74237"/>
<path d="M469.14 585.727L455.405 610.705" stroke="#F2D919" stroke-width="2.74237"/>
<path d="M491.285 638.329L460.963 639.029" stroke="#F2D919" stroke-width="2.74237"/>
<path d="M456.294 618.499L435.513 603.531" stroke="#F2D919" stroke-width="2.74237"/>
<path d="M495.919 617.871L474.367 626.326" stroke="#F2D919" stroke-width="2.74237"/>
<path d="M502.653 596.733L459.851 569.905" stroke="#F2D919" stroke-width="2.74237"/>
<path d="M580.511 604.43L565.744 619.949" stroke="#F2D919" stroke-width="2.74237"/>
<path d="M562.472 580.572L538.92 591.892" stroke="#F2D919" stroke-width="2.74237"/>
<path d="M564.302 567.964L554.879 583.193" stroke="#F2D919" stroke-width="2.74237"/>
<path d="M543.003 552.125L526.705 563.118" stroke="#F2D919" stroke-width="2.74237"/>
<path d="M502.124 546.177L501.517 559.419" stroke="#F2D919" stroke-width="2.74237"/>
<path d="M512.333 576.734L484.762 553.598" stroke="#F2D919" stroke-width="2.74237"/>
<path d="M511.54 587.769L507.551 605.84" stroke="#F2D919" stroke-width="2.74237"/>
<path d="M490.151 574.02L473.754 564.214" stroke="#F2D919" stroke-width="2.74237"/>
<path d="M481.671 561.861L480.813 568.337" stroke="#F2D919" stroke-width="2.74237"/>
<path d="M471.858 576.832L445.12 578.588" stroke="#F2D919" stroke-width="2.74237"/>
<path d="M477.906 574.151L483.737 584.405" stroke="#F2D919" stroke-width="2.74237"/>
<path d="M461.745 584.819L463.816 595.259" stroke="#F2D919" stroke-width="2.74237"/>
<path d="M450.907 602.475L452.19 584.41" stroke="#F2D919" stroke-width="2.74237"/>
<path d="M451.844 593.891L438.462 589.194" stroke="#F2D919" stroke-width="2.74237"/>
<path d="M440.803 607.327L439.774 595.942" stroke="#F2D919" stroke-width="2.74237"/>
<path d="M490.46 618.706L466.689 614.6" stroke="#F2D919" stroke-width="2.74237"/>
<path d="M488.229 607.376L488.952 595.501" stroke="#F2D919" stroke-width="2.74237"/>
<path d="M480.021 603.973L475.841 593.532" stroke="#F2D919" stroke-width="2.74237"/>
<path d="M480.021 603.973L468.437 607.465" stroke="#F2D919" stroke-width="2.74237"/>
<path d="M498.027 627.398L507.679 642.896" stroke="#F2D919" stroke-width="2.74237"/>
<path d="M449.417 624.67L440.494 626.134" stroke="#F2D919" stroke-width="2.74237"/>
<path d="M449.336 613.765L435.731 614.716" stroke="#F2D919" stroke-width="2.74237"/>
<path d="M530.303 590.464L529.614 604.034" stroke="#F2D919" stroke-width="2.74237"/>
<path d="M535.526 578.99L521.287 594.705" stroke="#F2D919" stroke-width="2.74237"/>
<path d="M572.339 574.945L558.316 602.065" stroke="#F2D919" stroke-width="2.74237"/>
<path d="M546.47 617.816L538.807 628.704" stroke="#F2D919" stroke-width="2.74237"/>
<path d="M467.161 638.469L457.573 632.253" stroke="#F2D919" stroke-width="2.74237"/>
<path d="M580.502 627.289L585.908 632.514" stroke="#F2D919" stroke-width="2.74237"/>
<path d="M565.587 608.574L570.906 613.312" stroke="#F2D919" stroke-width="2.74237"/>
<path d="M520.783 542.421L525.398 557.278" stroke="#F2D919" stroke-width="2.74237"/>
<path d="M544.151 595.938L534.532 597.712" stroke="#F2D919" stroke-width="2.74237"/>
<path d="M412 614.383L457.602 607.814" stroke="#F2D919" stroke-width="2.74237"/>
<path d="M526.04 681.328L517.789 625.173L549.294 596.844" stroke="#F2D919" stroke-width="2.74237"/>
<path d="M519.217 636.57L446.78 628.377" stroke="#F2D919" stroke-width="2.74237"/>
<path d="M422.615 595.506L513.005 624.133L467.618 577.732" stroke="#F2D919" stroke-width="2.74237"/>
<path d="M517.788 625.173L487.909 548.547" stroke="#F2D919" stroke-width="2.74237"/>
<path d="M517.789 625.173L534.146 559.293" stroke="#F2D919" stroke-width="2.74237"/>
<path d="M520.859 648.072L590.934 606.047" stroke="#F2D919" stroke-width="2.74237"/>
<path d="M574.002 616.28L577.286 589.469" stroke="#F2D919" stroke-width="2.74237"/>
<path d="M441.885 600.066L430.471 586.541" stroke="#F2D919" stroke-width="2.74237"/>
<path d="M505.111 590.423L523.001 546.089" stroke="#F2D919" stroke-width="2.74237"/>
<path d="M555.34 576.856L574.958 598.401" stroke="#F2D919" stroke-width="2.74237"/>
<path d="M546.895 632.606L576.612 627.127" stroke="#F2D919" stroke-width="2.74237"/>
<path d="M576.037 606.176L592.548 587.37" stroke="#F2D919" stroke-width="2.74237"/>
<path d="M534.634 612.128L557.742 615.988" stroke="#F2D919" stroke-width="2.74237"/>
<path d="M525.435 594.388L560.441 559.553" stroke="#F2D919" stroke-width="2.74237"/>
<path d="M437.56 646.12L480.968 632.172" stroke="#F2D919" stroke-width="2.74237"/>
<path d="M451.499 617.707L469.76 629.826" stroke="#F2D919" stroke-width="2.74237"/>
<path d="M463.519 589.677L488.493 598.159" stroke="#F2D919" stroke-width="2.74237"/>
<path d="M431.276 630.687L446.78 628.377L432.417 617.627" stroke="#F2D919" stroke-width="2.74237"/>
<path d="M458.189 578.885L471.171 591.807" stroke="#F2D919" stroke-width="2.74237"/>
<path d="M477.188 559.124L495.811 566.524" stroke="#F2D919" stroke-width="2.74237"/>
<path d="M513.331 545.023L517.228 557.802" stroke="#F2D919" stroke-width="2.74237"/>
<path d="M511.012 576.87L532.1 548.727" stroke="#F2D919" stroke-width="2.74237"/>
<path d="M514.539 587.46L522.937 604.257" stroke="#F2D919" stroke-width="2.74237"/>
<path d="M531.947 569.719L545.474 556.833" stroke="#F2D919" stroke-width="2.74237"/>
<path d="M537.174 556.149L539.626 562.284" stroke="#F2D919" stroke-width="2.74237"/>
<path d="M550.471 568.742L574.432 565.305" stroke="#F2D919" stroke-width="2.74237"/>
<path d="M543.91 567.359L540.788 578.534" stroke="#F2D919" stroke-width="2.74237"/>
<path d="M562.319 574.469L562.907 585.062" stroke="#F2D919" stroke-width="2.74237"/>
<path d="M577.286 589.469L571.527 572.129" stroke="#F2D919" stroke-width="2.74237"/>
<path d="M574.23 581.296L586.095 574.001" stroke="#F2D919" stroke-width="2.74237"/>
<path d="M588.342 592.143L586.502 580.842" stroke="#F2D919" stroke-width="2.74237"/>
<path d="M544.945 612.873L567.079 604.042" stroke="#F2D919" stroke-width="2.74237"/>
<path d="M542.146 601.828L538.478 590.404" stroke="#F2D919" stroke-width="2.74237"/>
<path d="M549.293 596.844L550.759 585.822" stroke="#F2D919" stroke-width="2.74237"/>
<path d="M549.293 596.844L561.452 597.892" stroke="#F2D919" stroke-width="2.74237"/>
<path d="M481.623 609.351L514.851 636.285" stroke="#F2D919" stroke-width="2.74237"/>
<path d="M584.278 610.791L593.337 610.404" stroke="#F2D919" stroke-width="2.74237"/>
<path d="M581.635 600.15L595.127 598.312" stroke="#F2D919" stroke-width="2.74237"/>
<path d="M496.931 593.898L502.983 612.896" stroke="#F2D919" stroke-width="2.74237"/>
<path d="M488.978 583.781L506.774 596.199" stroke="#F2D919" stroke-width="2.74237"/>
<path d="M452.101 587.319L472.533 610.893" stroke="#F2D919" stroke-width="2.74237"/>
<path d="M488.008 623.833L498.191 632.883" stroke="#F2D919" stroke-width="2.74237"/>
<path d="M570.434 627.841L578.224 619.837" stroke="#F2D919" stroke-width="2.74237"/>
<path d="M457.214 639.976L453.251 646.166" stroke="#F2D919" stroke-width="2.74237"/>
<path d="M437.292 639.479L443.536 643.01" stroke="#F2D919" stroke-width="2.74237"/>
<path d="M467.073 618.712L463.074 624.409" stroke="#F2D919" stroke-width="2.74237"/>
<path d="M417.624 606.839L428.232 610.972" stroke="#F2D919" stroke-width="2.74237"/>
<path d="M494.214 545.156L493.426 560.568" stroke="#F2D919" stroke-width="2.74237"/>
<path d="M488.751 597.712L490.115 588.94" stroke="#F2D919" stroke-width="2.74237"/>
<path d="M447.798 572.857L452.329 577.241" stroke="#F2D919" stroke-width="2.74237"/>
<path d="M610.998 26.9675L625.483 429.658Z" fill="#0BEF00"/>
<path d="M610.998 26.9675L625.483 429.658" stroke="white" stroke-width="2.26772"/>
<path d="M622.711 20.0886L659.504 472.972" stroke="white" stroke-width="2.26772"/>
<path d="M635.345 18.5568L704.281 532.492Z" fill="#B51DEF"/>
<path d="M635.345 18.5568L704.281 532.492" stroke="white" stroke-width="2.26772"/>
<path d="M646.59 18.9568L754.073 597.321" stroke="white" stroke-width="2.26772"/>
<path d="M816.684 678.866L657.583 22.6141C658.053 21.349 622.862 2.20346 603.312 35.5256L597.381 449.112L566.583 484.585L567.653 487.322L543.266 480.909L525.013 486.498L523.153 464.708L528.442 462.972V460.406L314.446 319.056L97.437 469.034L96.9252 471.162L100.733 471.719L3.09558 677.771" stroke="white" stroke-width="5.27599"/>
<path d="M101.135 473.812L314.454 328.049L523.153 464.708" stroke="white" stroke-width="2.27677"/>
<path d="M84.128 569.346L108.478 559.731L84.4704 617.028L61.3773 623.099L84.128 569.346Z" stroke="white" stroke-width="3.02362"/>
<path d="M136.952 546.914L233.71 506.031L211.268 579.704L110.62 609.14L136.952 546.914Z" stroke="white" stroke-width="3.02362"/>
<path d="M34.4869 677.759L45.5838 654.366L63.5875 649.935L52.8462 678.266" stroke="white" stroke-width="3.02362"/>
<path d="M82.183 677.576L97.1204 642.965L199.501 621.49L181.114 677.856" stroke="white" stroke-width="3.02362"/>
<path d="M314.454 328.049L222.339 678.025" stroke="white" stroke-width="3.51734"/>
<path d="M183.6 433.759L274.566 375.333L263.495 409.132L171.698 463.081L183.6 433.759Z" stroke="white" stroke-width="3.02362"/>
<path d="M321.499 402.672L329.167 368.827L408.53 415.486L405.972 447.773L321.499 402.672Z" stroke="white" stroke-width="3.02362"/>
<path d="M411.555 450.431L413.658 418.574L455.661 443.787L455.516 473.857L411.555 450.431Z" stroke="white" stroke-width="3.02362"/>
<path d="M460.717 447.058L511.988 477.085L513.589 504.518L460.655 476.73L460.717 447.058Z" stroke="white" stroke-width="3.02362"/>
<path d="M300.431 505.811L402.976 544.3L398.876 589.319L288.881 557.021L300.431 505.811Z" stroke="white" stroke-width="3.02362"/>
<path d="M159.526 174.856C152.219 174.856 145.883 172.801 140.517 168.691C135.151 164.581 131.155 158.987 128.529 151.908C125.903 144.715 125.047 136.609 125.96 127.59L134.352 47.7849C134.58 46.1866 135.151 44.8165 136.064 43.6748C137.092 42.419 138.405 41.791 140.003 41.791C141.602 41.791 142.8 42.476 143.6 43.8461C144.513 45.1019 144.855 46.5291 144.627 48.1275L136.236 128.275C135.436 135.353 135.893 141.69 137.606 147.284C139.432 152.879 142.23 157.331 145.997 160.642C149.879 163.839 154.446 165.437 159.698 165.437C165.406 165.437 170.715 163.782 175.624 160.471C180.534 157.046 184.587 152.365 187.783 146.428C191.094 140.491 193.149 133.812 193.949 126.391L202.511 46.5862C202.626 45.3303 203.025 44.2457 203.71 43.3323C204.509 42.3048 205.822 41.791 207.649 41.791C209.476 41.791 210.789 42.3048 211.588 43.3323C212.501 44.2457 212.844 45.5015 212.615 47.0999L204.395 126.391C203.482 135.639 200.856 143.916 196.517 151.223C192.293 158.53 186.984 164.296 180.591 168.52C174.197 172.744 167.176 174.856 159.526 174.856ZM247.436 174.171C242.527 174.171 238.189 173.429 234.421 171.945C230.653 170.461 227.457 168.52 224.831 166.122C223.232 164.638 222.091 163.154 221.406 161.67C220.721 160.071 220.949 158.644 222.091 157.388C223.347 155.904 224.545 155.162 225.687 155.162C226.943 155.048 228.256 155.619 229.626 156.874C231.681 158.587 234.25 160.243 237.332 161.841C240.415 163.325 243.897 164.067 247.779 164.067C250.976 164.067 253.43 163.325 255.143 161.841C256.855 160.243 257.712 158.13 257.712 155.504C257.712 153.792 257.198 152.194 256.17 150.709C255.257 149.225 253.487 147.513 250.862 145.572C248.236 143.631 244.297 141.119 239.045 138.036C234.821 135.525 231.624 132.899 229.455 130.159C227.285 127.304 226.201 123.765 226.201 119.541C226.201 114.289 228.142 110.065 232.023 106.868C236.019 103.557 241.385 101.902 248.121 101.902C250.862 101.902 253.83 102.358 257.027 103.272C260.223 104.185 263.534 105.726 266.96 107.896C268.9 109.037 270.27 110.579 271.07 112.519C271.869 114.346 271.812 115.944 270.898 117.315C270.099 118.685 268.957 119.313 267.473 119.198C265.989 119.084 264.448 118.456 262.849 117.315C261.137 116.059 258.911 114.917 256.17 113.889C253.545 112.748 250.405 112.177 246.751 112.177C243.44 112.177 240.872 112.862 239.045 114.232C237.218 115.602 236.305 117.429 236.305 119.712C236.305 121.881 237.047 123.708 238.531 125.192C240.015 126.562 242.356 128.161 245.553 129.987C251.718 133.641 256.399 136.723 259.596 139.235C262.906 141.747 265.133 144.202 266.274 146.599C267.416 148.997 267.987 151.851 267.987 155.162C267.987 159.044 267.131 162.412 265.418 165.266C263.706 168.12 261.308 170.347 258.226 171.945C255.257 173.429 251.661 174.171 247.436 174.171ZM289.825 174C288.455 174 287.256 173.543 286.228 172.63C285.315 171.602 284.973 170.175 285.201 168.349L291.366 108.238C291.594 106.411 292.279 105.041 293.421 104.128C294.563 103.215 295.819 102.758 297.189 102.758C298.445 102.758 299.529 103.272 300.443 104.299C301.47 105.327 301.87 106.868 301.641 108.923L295.305 168.349C295.191 170.175 294.563 171.602 293.421 172.63C292.279 173.543 291.081 174 289.825 174ZM298.901 87.0024C296.96 87.0024 295.134 86.2032 293.421 84.6048C291.823 83.0064 291.024 81.1226 291.024 78.9534C291.024 76.7842 291.766 74.9574 293.25 73.4732C294.848 71.989 296.732 71.2469 298.901 71.2469C300.956 71.2469 302.726 71.989 304.21 73.4732C305.809 74.8433 306.608 76.67 306.608 78.9534C306.608 81.1226 305.866 83.0064 304.381 84.6048C302.897 86.2032 301.071 87.0024 298.901 87.0024ZM320.378 174C318.209 174 316.838 173.372 316.268 172.116C315.697 170.746 315.468 169.262 315.583 167.664L322.433 108.238C322.661 106.411 323.289 105.041 324.317 104.128C325.344 103.215 326.885 102.758 328.941 102.758C330.653 102.758 331.738 103.272 332.194 104.299C332.651 105.213 332.765 106.525 332.537 108.238L325.687 167.664C325.458 169.034 325.173 170.461 324.83 171.945C324.488 173.315 323.004 174 320.378 174ZM359.766 174C357.597 174 356.284 173.372 355.828 172.116C355.371 170.746 355.2 169.262 355.314 167.664L360.28 126.391C360.851 121.938 360.509 118.456 359.253 115.944C358.111 113.319 356.341 112.006 353.944 112.006C349.719 112.006 345.381 114.974 340.928 120.911C336.59 126.848 331.224 136.838 324.83 150.881L326.885 128.104C330.767 119.998 334.934 113.604 339.387 108.923C343.84 104.242 348.863 101.902 354.458 101.902C360.28 101.902 364.619 104.128 367.473 108.581C370.327 112.919 371.298 118.856 370.384 126.391L365.247 167.664C365.132 169.034 364.847 170.461 364.39 171.945C363.934 173.315 362.392 174 359.766 174ZM408.299 174.171C402.362 174.171 397.567 172.402 393.913 168.862C390.374 165.323 387.862 160.813 386.378 155.333C385.008 149.853 384.608 144.145 385.179 138.208C386.092 130.33 387.976 123.708 390.831 118.342C393.799 112.976 397.452 108.923 401.791 106.183C406.129 103.329 410.81 101.902 415.834 101.902C418.802 101.902 421.999 102.587 425.424 103.957C428.963 105.327 431.989 107.439 434.501 110.293L433.473 119.712C431.532 116.744 428.792 114.632 425.253 113.376C421.714 112.006 418.46 111.321 415.491 111.321C410.582 111.321 406.243 113.718 402.476 118.513C398.708 123.308 396.368 130.045 395.454 138.721C394.998 143.174 395.112 147.398 395.797 151.394C396.482 155.39 397.852 158.644 399.907 161.156C402.076 163.668 404.931 164.923 408.47 164.923C411.324 164.923 414.007 163.668 416.519 161.156C419.031 158.53 421.314 155.219 423.369 151.223C425.538 147.113 427.365 142.717 428.849 138.036C430.333 133.241 431.475 128.674 432.274 124.336L429.363 157.388C428.221 159.786 426.908 162.012 425.424 164.067C423.94 166.008 422.284 167.778 420.458 169.376C418.631 170.86 416.69 172.059 414.635 172.972C412.694 173.772 410.582 174.171 408.299 174.171ZM432.103 174C430.733 174 429.534 173.543 428.507 172.63C427.593 171.602 427.194 170.175 427.308 168.349L433.644 108.238C433.873 106.411 434.558 105.041 435.699 104.128C436.841 103.215 438.04 102.758 439.296 102.758C440.552 102.758 441.693 103.272 442.721 104.299C443.748 105.327 444.148 106.868 443.92 108.923L437.583 168.349C437.355 170.175 436.67 171.602 435.528 172.63C434.501 173.543 433.359 174 432.103 174Z" fill="white"/>
<path d="M50.2597 317V208.002H104.032V220.356H64.066V243.608H95.5542V255.961H64.066V304.647H104.032V317H50.2597ZM152.774 318.453C145.669 318.453 139.21 316.758 133.397 313.367C127.584 309.976 122.941 305.414 119.469 299.681C115.998 293.949 114.262 287.611 114.262 280.667C114.262 273.724 115.998 267.386 119.469 261.653C122.941 255.921 127.584 251.359 133.397 247.968C139.21 244.577 145.669 242.882 152.774 242.882C158.022 242.882 162.947 243.81 167.549 245.667C172.151 247.524 176.188 249.987 179.66 253.055L175.664 269.526C173.645 265.489 170.577 262.098 166.459 259.352C162.422 256.607 157.82 255.235 152.653 255.235C147.97 255.235 143.691 256.405 139.816 258.747C136.021 261.008 132.993 264.076 130.732 267.951C128.472 271.746 127.341 275.985 127.341 280.667C127.341 285.27 128.472 289.508 130.732 293.384C132.993 297.259 136.021 300.368 139.816 302.709C143.691 304.97 147.97 306.1 152.653 306.1C157.82 306.1 162.422 304.768 166.459 302.104C170.577 299.439 173.645 296.008 175.664 291.809L179.66 308.28C176.188 311.348 172.151 313.811 167.549 315.668C162.947 317.525 158.022 318.453 152.774 318.453ZM228.83 318.453C221.806 318.453 215.387 316.758 209.574 313.367C203.761 309.976 199.118 305.414 195.647 299.681C192.255 293.949 190.56 287.611 190.56 280.667C190.56 273.643 192.255 267.305 195.647 261.653C199.118 255.921 203.761 251.359 209.574 247.968C215.387 244.577 221.806 242.882 228.83 242.882C235.935 242.882 242.354 244.577 248.086 247.968C253.9 251.359 258.502 255.921 261.893 261.653C265.365 267.305 267.1 273.643 267.1 280.667C267.1 287.611 265.365 293.949 261.893 299.681C258.502 305.414 253.9 309.976 248.086 313.367C242.354 316.758 235.935 318.453 228.83 318.453ZM228.83 306.1C233.513 306.1 237.752 304.97 241.547 302.709C245.341 300.368 248.369 297.3 250.63 293.505C252.89 289.63 254.021 285.35 254.021 280.667C254.021 275.985 252.89 271.746 250.63 267.951C248.369 264.076 245.341 261.008 241.547 258.747C237.752 256.405 233.513 255.235 228.83 255.235C224.147 255.235 219.909 256.405 216.114 258.747C212.319 261.008 209.291 264.076 207.031 267.951C204.77 271.746 203.64 275.985 203.64 280.667C203.64 285.35 204.77 289.63 207.031 293.505C209.291 297.3 212.319 300.368 216.114 302.709C219.909 304.97 224.147 306.1 228.83 306.1ZM279.62 286.481V274.854H315.953V286.481H279.62ZM383.773 319.18C375.942 319.18 368.554 317.727 361.61 314.82C354.748 311.833 348.692 307.755 343.444 302.588C338.277 297.421 334.2 291.406 331.212 284.543C328.306 277.68 326.852 270.333 326.852 262.501C326.852 254.67 328.306 247.322 331.212 240.459C334.2 233.597 338.277 227.582 343.444 222.414C348.692 217.247 354.748 213.21 361.61 210.304C368.554 207.316 375.942 205.822 383.773 205.822C391.524 205.822 398.791 207.276 405.573 210.182C412.355 213.008 418.33 216.924 423.497 221.93L419.5 238.643C415.786 232.668 410.78 227.905 404.483 224.352C398.266 220.719 391.363 218.902 383.773 218.902C375.78 218.902 368.554 220.88 362.095 224.837C355.716 228.712 350.63 233.96 346.835 240.581C343.04 247.12 341.143 254.427 341.143 262.501C341.143 270.494 343.04 277.801 346.835 284.422C350.63 291.042 355.716 296.331 362.095 300.287C368.554 304.163 375.78 306.1 383.773 306.1C391.443 306.1 398.387 304.284 404.604 300.65C410.821 297.017 415.786 292.254 419.5 286.36L423.497 303.073C418.33 307.998 412.355 311.913 405.573 314.82C398.791 317.727 391.524 319.18 383.773 319.18ZM467.944 318.453C462.857 318.453 458.093 317.202 453.653 314.699C449.212 312.115 445.619 308.401 442.874 303.557C440.129 298.713 438.756 292.899 438.756 286.117V244.335H451.836V284.301C451.836 290.033 453.532 295.12 456.923 299.56C460.395 303.92 465.239 306.1 471.456 306.1C476.542 306.1 481.064 304.284 485.02 300.65C489.057 296.936 491.075 291.608 491.075 284.664V244.335H504.155V317H492.044V305.252C489.38 309.532 485.908 312.802 481.629 315.062C477.43 317.323 472.869 318.453 467.944 318.453ZM527.408 317V200.736H540.488V317H527.408ZM572.161 317V255.235H555.69V244.335H572.524V220.113H584.878V244.335H602.923V255.235H585.241V317H572.161ZM645.916 318.453C640.83 318.453 636.066 317.202 631.625 314.699C627.185 312.115 623.592 308.401 620.847 303.557C618.102 298.713 616.729 292.899 616.729 286.117V244.335H629.809V284.301C629.809 290.033 631.504 295.12 634.895 299.56C638.367 303.92 643.211 306.1 649.428 306.1C654.515 306.1 659.036 304.284 662.992 300.65C667.029 296.936 669.048 291.608 669.048 284.664V244.335H682.128V317H670.017V305.252C667.352 309.532 663.881 312.802 659.601 315.062C655.403 317.323 650.841 318.453 645.916 318.453ZM705.38 317V244.335H717.491V257.657C720.075 253.378 723.506 249.987 727.785 247.484C732.065 244.9 737.151 243.608 743.045 243.608L746.315 256.688C744.781 256.204 743.005 255.961 740.986 255.961C734.204 255.961 728.754 258.141 724.637 262.501C720.519 266.78 718.46 272.917 718.46 280.91V317H705.38ZM788.62 317.969C781.999 317.969 775.944 316.314 770.453 313.003C764.963 309.612 760.563 305.091 757.253 299.439C754.023 293.788 752.408 287.53 752.408 280.667C752.408 273.805 754.023 267.547 757.253 261.896C760.563 256.244 764.963 251.763 770.453 248.453C775.944 245.062 781.999 243.366 788.62 243.366C793.625 243.366 798.308 244.295 802.668 246.152C807.109 248.009 810.944 250.592 814.174 253.903V244.335H826.284V317H814.174V307.432C810.944 310.662 807.109 313.246 802.668 315.183C798.308 317.04 793.625 317.969 788.62 317.969ZM790.315 306.1C794.917 306.1 799.075 304.97 802.789 302.709C806.584 300.368 809.571 297.3 811.751 293.505C814.012 289.63 815.142 285.35 815.142 280.667C815.142 275.985 814.012 271.746 811.751 267.951C809.571 264.076 806.584 261.008 802.789 258.747C799.075 256.405 794.917 255.235 790.315 255.235C785.713 255.235 781.515 256.405 777.72 258.747C774.006 261.008 771.019 264.076 768.758 267.951C766.578 271.746 765.488 275.985 765.488 280.667C765.488 285.35 766.578 289.63 768.758 293.505C771.019 297.3 774.006 300.368 777.72 302.709C781.515 304.97 785.713 306.1 790.315 306.1ZM849.462 317V200.736H862.541V317H849.462Z" fill="white"/>
<path d="M100.75 486.577L165.771 444.849L150.755 480.193L119.518 498.434L99.2879 541.843L68.6609 553.399" stroke="white" stroke-width="3.02362" stroke-linecap="round" stroke-linejoin="round"/>
<path d="M100.75 486.577L68.6609 553.399" stroke="white" stroke-width="3.02362" stroke-linecap="round"/>
<path d="M1 681.771L819.8 682.866" stroke="white" stroke-width="9.44882"/>
</svg>
