<svg width="15" height="18" viewBox="0 0 15 18" fill="none" xmlns="http://www.w3.org/2000/svg">
<g clip-path="url(#clip0_95_19)">
<path fill-rule="evenodd" clip-rule="evenodd" d="M0.627577 2.66641C0.482813 2.82802 0.458794 3.06455 0.568117 3.25196L3.92115 9.00002L0.568117 14.7481C0.458794 14.9355 0.482813 15.172 0.627577 15.3336C0.772341 15.4952 1.00481 15.545 1.20308 15.4569L14.7031 9.45693C14.8836 9.37668 15 9.19762 15 9.00002C15 8.80243 14.8836 8.62337 14.7031 8.54312L1.20308 2.54312C1.00481 2.455 0.772341 2.5048 0.627577 2.66641ZM2.21234 4.086L13.2689 9.00002L2.21234 13.914L4.84552 9.40002H9C9.22092 9.40002 9.4 9.22094 9.4 9.00002C9.4 8.77911 9.22092 8.60002 9 8.60002H4.84553L2.21234 4.086Z" fill="#32B118"/>
</g>
<defs>
<clipPath id="clip0_95_19">
<rect width="15" height="18" fill="white"/>
</clipPath>
</defs>
</svg>
