<svg width="16" height="16" viewBox="0 0 16 16" fill="none" xmlns="http://www.w3.org/2000/svg">
<path d="M9.78125 3.09375L10.2812 4.65625L7.46875 7.5C7.15625 7.78125 7.15625 8.25 7.46875 8.53125C7.75 8.84375 8.21875 8.84375 8.5 8.53125L11.3438 5.71875L12.9062 6.21875C13.125 6.3125 13.375 6.25 13.5625 6.0625L15.5312 4.09375C15.875 3.75 15.75 3.1875 15.2812 3.03125L13.5625 2.4375L12.9688 0.71875C12.8125 0.25 12.25 0.125 11.9062 0.46875L9.9375 2.4375C9.8125 2.5625 9.71875 2.71875 9.71875 2.90625C9.71875 2.96875 9.75 3.03125 9.78125 3.09375ZM8 4.75C8.21875 4.75 8.46875 4.78125 8.6875 4.84375L9.15625 4.375L8.8125 3.40625C8.8125 3.40625 8.8125 3.375 8.8125 3.34375C8.53125 3.3125 8.28125 3.25 7.96875 3.25C5.34375 3.25 3.21875 5.375 3.21875 8C3.21875 10.6562 5.34375 12.75 7.96875 12.75C10.625 12.75 12.7188 10.625 12.7188 8C12.7188 7.71875 12.6875 7.46875 12.6562 7.1875C12.625 7.1875 12.5938 7.1875 12.5938 7.1875L11.625 6.84375L11.1562 7.3125C11.2188 7.53125 11.2188 7.78125 11.2188 8C11.2188 9.8125 9.78125 11.25 7.96875 11.25C6.1875 11.25 4.71875 9.8125 4.71875 8C4.71875 6.21875 6.1875 4.75 8 4.75ZM15.375 5.6875L14.25 6.78125C14.2188 6.8125 14.1875 6.84375 14.125 6.90625C14.1875 7.25 14.25 7.625 14.25 8C14.25 11.4688 11.4375 14.25 8 14.25C4.53125 14.25 1.75 11.4688 1.75 8C1.75 4.5625 4.53125 1.75 8 1.75C8.375 1.75 8.75 1.8125 9.125 1.875C9.15625 1.8125 9.1875 1.78125 9.21875 1.75L10.3125 0.625C9.59375 0.40625 8.8125 0.28125 8 0.28125V0.25C3.71875 0.25 0.25 3.75 0.25 8C0.25 12.2812 3.71875 15.75 8 15.75C12.25 15.75 15.75 12.2812 15.75 8C15.75 7.1875 15.5938 6.40625 15.375 5.6875Z" fill="#9DFF8A"/>
</svg>
